<svg width="130" height="255" viewBox="0 0 130 255" fill="none" xmlns="http://www.w3.org/2000/svg">
<g clip-path="url(#clip0_169_5)">
<path d="M86.2705 245.222C86.1565 245.389 86.0692 245.587 85.9213 245.715C84.968 246.548 84.3817 247.556 84.2178 248.824C84.1109 249.65 83.8614 250.456 83.7331 251.28C83.5567 252.415 84.1198 253.225 85.1408 253.561C86.6518 254.057 88.1949 254.554 89.763 254.766C93.5815 255.282 97.3466 254.975 100.966 253.526C102.886 252.757 104.456 251.551 105.748 249.944C105.949 249.694 106.407 249.627 106.764 249.527C107.097 249.435 107.459 249.448 107.79 249.35C108.04 249.278 108.253 249.09 108.496 248.978C110.411 248.101 111.313 246.723 111.014 244.544C110.762 242.714 110.787 240.846 110.584 239.007C110.461 237.902 110.133 236.818 109.893 235.698C109.989 235.631 110.076 235.546 110.18 235.503C111.224 235.078 111.509 234.298 111.571 233.198C112.694 212.941 113.378 192.67 113.772 172.389C113.793 171.273 113.775 170.155 113.775 169.086C120.317 166.957 124.075 162.751 124.784 155.553C125.019 153.158 124.852 150.722 124.816 148.303C124.809 147.79 124.83 147.46 125.416 147.357C126.628 147.147 127.049 146.397 127.177 145.189C128.255 134.97 129.495 124.769 129.948 114.494C130.16 109.689 129.705 104.927 128.968 100.198C127.972 93.8115 126.842 87.4442 125.721 81.077C124.631 74.8781 121.156 70.4525 115.522 67.6126C113.512 66.601 111.589 65.4122 109.665 64.2429C109.191 63.9559 108.804 63.4705 108.48 63.0063C107.954 62.2569 107.594 61.3835 107.011 60.689C106.564 60.154 105.759 59.9077 105.342 59.3603C104.953 58.8501 105.37 57.9342 104.579 57.4859C104.446 57.4097 104.406 57.0696 104.419 56.857C104.474 55.8259 104.52 54.7895 104.659 53.7673C104.711 53.3935 104.962 53.0143 105.21 52.7061C106.174 51.5102 107.167 50.3356 108.164 49.1681C108.348 48.952 108.583 48.7553 108.834 48.6224C112.28 46.8012 113.816 43.8904 113.829 40.0832C113.829 39.6279 113.914 39.1495 114.071 38.7208C115.347 35.2342 115.942 31.7069 114.813 28.0556C114.761 27.8908 114.711 27.7083 114.732 27.5418C115.26 23.3288 115.798 19.1177 116.327 14.9065C116.423 14.1447 116.425 13.3669 116.582 12.6193C117.026 10.5093 116.213 8.83334 114.597 7.64103C112.844 6.34951 111.008 5.07925 109.032 4.19166C101.154 0.662566 92.8759 -0.641356 84.2748 0.292294C81.9958 0.540323 79.7916 1.15331 77.7229 2.18086C75.6773 3.19777 74.5779 4.73555 74.3765 7.09891C73.9863 11.6538 73.3787 16.1892 72.8423 20.7316C72.8138 20.9708 72.6606 21.2241 72.4984 21.4155C69.7116 24.6948 70.4938 28.5357 72.2775 31.0921C72.5376 31.466 72.6891 31.9992 72.6837 32.4563C72.6267 36.7047 72.2917 40.9637 72.4949 45.1979C72.7532 50.5819 74.92 55.1828 79.3355 58.5631C80.8714 59.7394 82.6177 60.4127 84.649 60.8343C84.3265 61.1709 84.1287 61.4632 83.8579 61.6457C82.1954 62.7636 80.5899 63.9931 78.8258 64.925C76.6038 66.0996 74.2518 67.0333 71.9496 68.059C69.0184 69.3665 66.8624 71.5137 65.2997 74.2491C61.8713 80.255 58.4929 86.2874 55.0877 92.3056C54.3019 93.6946 53.4734 95.0605 52.7036 96.4583C52.4595 96.9012 52.1673 96.988 51.6986 96.9402C43.9297 96.1483 36.1625 95.3546 28.3882 94.6194C27.6897 94.5538 26.9538 94.8975 26.2339 95.0499C26.2357 95.1367 26.2392 95.2253 26.241 95.3121C26.0379 95.0694 25.8241 94.8355 25.6352 94.5822C24.4057 92.9221 22.7717 91.8025 20.9221 90.9025C19.1955 90.0627 17.5455 89.0671 15.8634 88.137C15.4482 87.9084 15.0598 87.6214 14.6232 87.4478C13.032 86.8171 11.7063 87.8854 11.9807 89.5737C12.1927 90.8794 13.0694 91.7706 14.0103 92.605C14.2865 92.8495 14.5894 93.0656 14.878 93.2942L14.7872 93.6219C12.9251 93.4129 11.0524 93.2623 9.20099 92.9735C7.56167 92.7184 5.95085 92.2861 4.32044 91.9725C3.47227 91.8096 2.65973 91.8751 2.08775 92.683C1.98797 92.8229 1.7492 92.8849 1.56033 92.9399C-0.0914699 93.4217 -0.515555 95.0587 0.658699 96.3166C1.06318 96.7506 1.30551 97.3388 1.72247 97.7605C2.54748 98.5967 3.43841 99.3691 4.31331 100.156C4.48615 100.312 4.72849 100.395 4.89777 100.556C9.53776 104.987 15.238 106.604 21.4941 106.76C21.5244 106.76 21.5529 106.76 21.5832 106.76C22.2354 106.771 23.0354 106.558 23.4987 106.86C23.9335 107.139 24.0351 107.956 24.24 108.551C24.5643 109.49 25.2485 109.972 26.184 110.176C30.7385 111.163 35.2644 112.306 39.8527 113.094C44.2344 113.847 48.673 114.295 53.101 114.74C54.5568 114.887 56.0731 114.715 57.5307 114.494C59.8721 114.137 61.6664 112.745 63.1935 111.041C64.7687 109.283 66.2565 107.448 67.8638 105.552C67.8869 105.889 67.9261 106.185 67.9244 106.482C67.8459 114.749 67.7818 123.013 67.6749 131.28C67.6375 134.143 67.5234 137.006 67.3934 139.867C67.3488 140.841 67.6339 141.507 68.5605 141.924C68.8064 142.034 69.0541 142.434 69.0701 142.712C69.765 155.16 71.3188 167.522 72.7479 179.899C73.6709 187.903 74.4674 195.923 75.1178 203.954C75.8234 212.692 76.2849 221.447 76.8907 230.194C76.9246 230.684 77.3041 231.152 77.5732 231.742C75.1552 234.123 72.3737 236.226 68.8456 237.169C67.4985 237.528 66.1389 237.851 64.8007 238.24C62.9547 238.775 61.6308 239.801 61.4134 241.874C61.335 242.615 61.0641 243.336 60.9697 244.076C60.8343 245.127 61.3849 245.858 62.3204 246.23C63.4162 246.668 64.5317 247.137 65.6828 247.347C71.4988 248.402 77.158 247.984 82.541 245.345C82.7798 245.228 83.0382 245.146 83.2787 245.033C83.9398 244.719 84.5688 244.501 85.2673 245.027C85.5186 245.217 85.948 245.171 86.299 245.235C87.8492 243.947 89.7897 243.121 91.0032 241.307C90.8214 241.293 90.7127 241.265 90.6111 241.28C86.9138 241.821 83.2841 242.54 79.7489 243.872C74.7275 245.763 69.5316 245.807 64.3499 244.402C63.5926 244.197 62.8959 243.771 62.1707 243.449C63.2273 243.589 64.1717 244.007 65.1625 244.225C70.1107 245.314 75.0572 245.231 79.8094 243.458C83.432 242.106 87.1543 241.406 90.9426 240.866C91.2419 240.823 91.6126 240.605 91.7711 240.356C92.5605 239.108 93.2893 237.824 94.0395 236.554C94.1678 236.338 94.3032 236.125 94.435 235.912C94.5188 235.964 94.6043 236.013 94.6881 236.065C93.9201 237.413 93.1859 238.781 92.377 240.106C91.0513 242.278 89.1571 243.864 86.9423 245.088C86.7534 245.192 86.5004 245.18 86.2776 245.222H86.2705ZM112.681 169.168C112.681 169.391 112.685 169.565 112.681 169.74C112.393 180.749 112.181 191.762 111.794 202.767C111.436 212.975 110.887 223.176 110.445 233.383C110.42 233.972 110.21 234.284 109.695 234.531C107.845 235.418 105.882 235.836 103.852 235.978C100.859 236.185 97.9168 235.946 95.0979 234.825C94.5063 234.589 94.0715 234.33 94.043 233.517C93.7169 224.547 93.3926 215.578 92.9525 206.615C92.687 201.19 92.2914 195.771 91.8228 190.36C91.274 184.009 90.661 177.661 89.9323 171.328C89.191 164.879 88.2805 158.45 87.4323 152.013C87.3913 151.7 87.3343 151.258 87.124 151.12C86.0068 150.385 84.8361 149.728 83.685 149.042C83.5924 149.138 83.4979 149.232 83.4053 149.327C83.5781 149.572 83.7046 149.873 83.9309 150.05C84.5154 150.504 85.1729 150.865 85.7413 151.336C86.0246 151.572 86.3079 151.944 86.3667 152.291C86.6982 154.238 87.0064 156.192 87.2416 158.154C88.006 164.54 88.8043 170.924 89.4547 177.323C90.1193 183.869 90.6771 190.428 91.1831 196.988C91.5894 202.255 91.8959 207.533 92.1649 212.809C92.4679 218.735 92.6692 224.666 92.9436 230.594C92.9757 231.301 92.7048 231.581 92.0527 231.74C89.3692 232.398 86.6411 232.642 83.9238 232.215C82.1579 231.937 80.4456 231.31 78.7154 230.823C78.1648 230.667 77.983 230.291 77.9492 229.698C77.5785 223.096 77.3344 216.481 76.7411 209.898C75.6434 197.7 74.3355 185.52 73.1167 173.333C72.1991 164.14 71.2743 154.947 70.3816 145.752C70.2836 144.751 70.3691 143.734 70.3691 142.733C71.8623 143.091 73.3216 143.481 74.7988 143.787C78.8704 144.631 83.0043 144.803 87.149 144.959C93.4568 145.196 99.7361 144.974 105.994 144.181C107.749 143.958 109.499 143.674 111.284 143.414C111.489 144.578 110.748 145.984 112.418 146.647C109.499 150.596 109.011 155.133 108.535 159.668C108.437 160.602 108.523 161.525 109.396 162.131C110.187 162.68 110.965 162.515 111.725 162.03C111.742 162.019 111.805 162.08 111.887 162.131C111.438 163.398 110.923 164.657 110.549 165.958C110.051 167.685 110.83 168.838 112.683 169.166L112.681 169.168ZM108.428 64.7514C111.935 66.8933 115.404 68.9378 118.791 71.1116C120.98 72.5165 122.407 74.6017 123.275 77.0253C123.82 78.5506 124.374 80.0991 124.67 81.6847C125.744 87.4602 126.805 93.241 127.69 99.0467C128.415 103.804 129.1 108.601 128.781 113.422C128.246 121.491 127.496 129.545 126.86 137.608C126.815 138.166 126.576 138.37 126.07 138.467C122.002 139.265 117.986 139.054 113.995 137.952C113.111 137.707 112.892 137.287 112.94 136.394C113.248 130.646 113.519 124.895 113.736 119.142C113.82 116.933 114.011 114.676 113.677 112.513C112.594 105.483 111.295 98.4886 110.064 91.4818C110.01 91.1789 109.793 90.906 109.652 90.6172C109.527 90.6385 109.401 90.6615 109.276 90.6828C109.276 91.209 109.203 91.7475 109.287 92.2595C109.985 96.4831 110.741 100.698 111.423 104.925C112.01 108.562 112.847 112.169 112.672 115.898C112.275 124.362 111.896 132.825 111.541 141.289C111.512 141.988 111.293 142.241 110.604 142.363C102.881 143.75 95.1032 144.204 87.2719 143.811C86.0228 143.749 86.0228 143.734 86.0228 142.459C86.0228 130.086 86.0406 117.713 85.9997 105.34C85.9943 103.85 85.7876 102.337 85.4722 100.879C85.2317 99.7642 85.2174 98.8642 86.0923 98.0103C86.6376 97.4788 87.01 96.779 87.4964 96.1819C92.2059 90.4011 96.919 84.622 101.639 78.8501C102.411 77.9058 102.437 77.7818 101.696 76.795C101.171 76.0934 100.636 75.3971 100.039 74.6123C101.279 74.2597 102.375 73.9107 103.492 73.645C104.175 73.482 104.533 73.1436 104.759 72.4686C105.638 69.8289 106.744 67.2884 108.426 64.7514H108.428ZM77.4556 73.4413C76.5967 74.1924 75.8733 74.8462 75.1267 75.4715C74.6188 75.8967 74.4282 76.3822 74.5975 77.0359C75.1481 79.176 75.5935 81.3481 76.2314 83.4634C78.0988 89.6411 80.3618 95.6646 83.9648 101.086C84.6935 102.184 84.9893 103.307 84.9893 104.572C84.9929 117.298 84.9965 130.024 85.0214 142.748C85.0214 143.555 84.7577 143.888 83.9327 143.802C82.0136 143.601 80.0642 143.575 78.1772 143.215C75.3298 142.671 72.5234 141.911 69.7027 141.224C68.8171 141.008 68.4411 140.51 68.5088 139.5C68.6852 136.85 68.7244 134.191 68.8082 131.535C69.1129 121.945 69.4781 112.357 68.8723 102.76C68.4001 95.2802 67.5733 87.8127 67.7818 80.2992C67.7889 80.0583 67.7016 79.8156 67.6571 79.5746C67.5591 79.5605 67.4629 79.5481 67.3648 79.5339C67.2348 80.0158 67.0049 80.4959 66.9907 80.9796C66.9194 83.6033 66.784 86.2324 66.8944 88.8527C67.0904 93.5422 67.4504 98.2246 67.7159 102.911C67.7355 103.263 67.6571 103.708 67.4486 103.974C65.738 106.162 64.0381 108.364 62.2295 110.472C60.2837 112.741 57.7356 113.751 54.7278 113.705C49.3893 113.622 44.1488 112.743 38.9137 111.831C36.8503 111.471 34.8011 111.026 32.6344 110.599C34.0278 108.383 34.737 106.089 34.9936 103.658C35.2502 101.235 35.0898 98.8429 34.2381 96.4654C34.4519 96.4654 34.5641 96.4565 34.6764 96.4654C40.0559 96.965 45.4336 97.5178 50.8202 97.9305C52.2385 98.0386 53.4253 98.4107 54.4302 99.3656C54.8793 99.7925 55.2713 100.278 55.7007 100.726C55.8807 100.914 56.0945 101.068 56.2923 101.238C56.3725 101.16 56.4544 101.082 56.5346 101.003C56.0268 99.3868 54.7118 98.439 53.3451 97.5284C53.3878 97.4185 53.4074 97.3353 53.4484 97.2626C56.1996 92.4013 58.9277 87.5275 61.7145 82.6874C63.5552 79.4878 65.4689 76.329 67.3791 73.1684C67.6927 72.6493 68.1542 72.2188 68.5462 71.7476C68.1916 73.9993 67.3221 76.0845 67.5288 78.4071C67.7283 78.3398 67.8121 78.3363 67.8281 78.3026C67.8994 78.1432 67.9636 77.9784 68.0081 77.8083C68.5765 75.6115 69.1271 73.4094 69.7205 71.2196C69.8114 70.883 70.0216 70.4578 70.3014 70.3108C73.0615 68.8634 75.8483 67.4673 78.6281 66.0571L78.7403 66.2803C77.9937 67.446 77.199 68.587 76.5094 69.7846C75.1997 72.0576 75.1285 71.5137 77.0404 73.1613C77.1295 73.2375 77.2346 73.2942 77.4502 73.4377L77.4556 73.4413ZM100.333 23.134C100.319 23.3235 100.321 23.4369 100.299 23.5485C99.663 26.9075 100.369 30.0044 102.222 32.8425C103.081 34.1571 103.355 35.6098 103.499 37.1175C103.569 37.8527 103.642 38.5861 103.687 39.3231C103.72 39.8688 103.859 40.3064 104.472 40.4499C105.085 40.5934 105.399 40.2426 105.691 39.7926C106.174 39.0521 106.609 38.2584 107.2 37.61C108.701 35.9624 110.924 36.2281 112.042 38.1503C112.289 38.5773 112.475 39.0645 112.571 39.5464C113.118 42.2517 111.712 45.6638 109.321 47.0811C108.471 47.5843 107.33 48.0201 106.411 47.8854C105.226 47.7136 104.921 47.6853 104.585 49.0352C103.964 51.512 103.344 53.9728 103.389 56.5186C103.412 57.8385 102.992 58.6463 101.8 59.1123C101.773 59.1229 101.748 59.1424 101.721 59.1548C97.188 61.2081 92.6567 63.265 88.1183 65.3041C87.9579 65.3768 87.6479 65.336 87.516 65.2244C86.2099 64.1136 85.4188 62.7813 85.8161 60.9512C85.9213 60.9388 86.0353 60.9123 86.1493 60.9158C90.392 61.0469 94.2319 59.7607 97.7475 57.509C98.9058 56.7666 99.8929 55.755 100.932 54.8373C101.058 54.7257 101.026 54.4387 101.067 54.2314C100.862 54.2669 100.65 54.2846 100.452 54.3466C100.349 54.3803 100.269 54.4919 100.18 54.5698C97.4143 56.9633 94.2052 58.5206 90.6628 59.3585C86.855 60.2603 83.1611 60.1381 79.9021 57.6135C75.8198 54.4511 73.8366 50.1567 73.5854 45.1376C73.4125 41.6706 73.6424 38.1804 73.76 34.7027C73.8063 33.3226 74.0789 31.9514 74.168 30.5713C74.2322 29.5668 74.7703 29.0813 75.6523 28.7252C78.3715 27.6251 81.2332 27.1556 84.102 26.6701C88.104 25.9916 92.1061 25.3166 96.0851 24.5247C97.5141 24.2412 98.8772 23.6229 100.333 23.1375V23.134ZM114.36 22.3438C113.881 22.0037 113.555 21.7592 113.216 21.5324C109.385 18.9653 105.167 17.2309 100.748 15.9996C92.0919 13.5902 83.3999 12.2863 74.6367 15.5974C74.6367 15.4787 74.6171 15.2732 74.6402 15.073C74.961 12.3181 75.3761 9.57034 75.5793 6.80836C75.7093 5.03141 76.6484 4.03398 78.1095 3.27218C80.034 2.26767 82.1027 1.7911 84.2267 1.48815C88.2288 0.915909 92.2237 1.0665 96.2044 1.67417C101.584 2.49621 106.774 3.92946 111.468 6.75876C112.667 7.48158 113.765 8.43649 114.731 9.45341C115.199 9.94592 115.511 10.8441 115.458 11.5244C115.174 15.0801 114.752 18.6252 114.36 22.3438ZM26.5992 106.078C24.7959 105.937 23.1798 105.804 21.5636 105.687C20.6762 105.623 19.7835 105.609 18.8979 105.529C14.6713 105.141 10.7851 103.809 7.3318 101.327C6.73665 100.9 6.17537 100.386 5.73168 99.8102C5.51251 99.525 5.41807 98.8801 5.59447 98.6303C5.77266 98.3788 6.38741 98.2831 6.76338 98.3575C7.29972 98.4638 7.78618 98.8075 8.30827 99.013C9.87632 99.626 11.4461 100.237 13.0284 100.809C13.3153 100.914 13.6735 100.824 13.9978 100.824C14.021 100.751 14.0441 100.678 14.0673 100.606C13.7234 100.338 13.1371 100.113 13.0801 99.7943C12.877 98.6658 12.068 97.6471 12.4297 96.3999C12.4761 96.2404 12.1731 95.8294 11.9682 95.7745C10.1721 95.2979 8.34926 94.9276 6.56204 94.4227C5.41808 94.1003 4.32579 93.6024 3.20856 93.1826C3.22103 93.1117 3.2335 93.0408 3.24597 92.97C3.57918 92.97 3.92309 92.9186 4.24561 92.9806C5.11872 93.1454 5.99006 93.3332 6.8507 93.5546C10.01 94.3696 13.1995 94.7806 16.4603 94.327C16.7757 94.2828 17.0769 94.1481 17.6239 93.9851C17.0697 93.5989 16.7151 93.3969 16.4158 93.1347C15.3966 92.2436 14.3417 91.3826 13.4133 90.4029C12.9607 89.9245 12.6471 89.145 13.2262 88.5497C13.8392 87.9208 14.4183 88.5338 14.9689 88.8367C16.7811 89.8342 18.5558 90.9113 20.4143 91.8131C22.3334 92.7432 23.8943 94.017 25.1683 95.7107C25.6085 96.2953 26.2998 96.6869 26.8629 97.1847C27.0625 97.3619 27.3387 97.5691 27.3761 97.7959C27.8394 100.678 27.4812 103.481 26.5956 106.08L26.5992 106.078ZM123.647 147.775C123.941 150.619 124.019 153.326 123.656 156.031C123.326 158.49 122.601 160.825 121.145 162.863C120.459 163.821 119.6 164.659 118.82 165.55C119.148 164.445 119.682 163.504 120.115 162.519C120.531 161.573 121.04 160.623 120.791 159.507C120.457 159.807 120.251 160.145 120.115 160.51C119.353 162.574 118.351 164.512 116.938 166.211C116.283 167.001 115.483 167.634 114.376 167.891C115.151 166.512 115.924 165.267 116.566 163.958C117.214 162.634 117.608 161.217 117.644 159.704C117.32 159.918 117.12 160.179 117.006 160.473C116.587 161.545 116.316 162.693 115.768 163.69C115.005 165.077 114.075 166.378 113.138 167.658C112.956 167.907 112.309 168.082 112.06 167.949C111.753 167.788 111.457 167.258 111.477 166.904C111.511 166.277 111.723 165.635 111.97 165.045C113.187 162.149 113.815 159.139 113.808 156.001C113.808 155.7 113.681 155.401 113.613 155.099C113.517 155.099 113.421 155.099 113.325 155.099C113.198 155.473 113.034 155.842 112.95 156.224C112.758 157.087 112.672 157.98 112.414 158.822C112.193 159.541 111.874 160.264 111.436 160.87C111.213 161.178 110.559 161.447 110.233 161.339C109.92 161.235 109.756 160.63 109.572 160.226C109.506 160.083 109.563 159.877 109.588 159.702C109.83 157.92 110.06 156.134 110.329 154.355C110.737 151.648 111.908 149.253 113.403 146.968C116.749 147.981 120.117 148.291 123.649 147.772L123.647 147.775ZM105.803 60.7882C106.324 61.6404 106.789 62.4624 107.316 63.242C107.64 63.7221 107.594 64.0888 107.343 64.6043C106.147 67.074 105.032 69.5791 103.845 72.0541C103.694 72.3712 103.344 72.6972 103.013 72.8088C101.89 73.1879 100.738 73.4802 99.5936 73.7938C98.9004 73.9851 98.7098 74.32 99.1873 74.9312C99.6613 75.5371 100.101 76.1696 100.566 76.7808C101.342 77.7977 101.315 77.7694 100.518 78.7438C95.9176 84.3829 91.3292 90.0326 86.7427 95.6823C86.1582 96.4016 85.6094 97.151 84.9911 97.9536C84.5457 96.6869 84.4191 95.5902 84.9555 94.4121C86.6411 90.7058 88.1397 86.911 89.9269 83.2561C93.9753 74.9719 99.018 67.3539 105.803 60.7882ZM84.3015 100.586C83.8899 99.7961 83.5335 99.1246 83.1879 98.4496C79.7293 91.6838 77.085 84.6291 75.5686 77.1741C75.4617 76.6461 75.549 76.283 75.9642 75.9339C76.7125 75.3068 77.4164 74.6265 78.1594 73.9922C78.6102 73.6078 78.5995 73.2854 78.1469 72.9186C77.6017 72.4793 77.0778 72.0151 76.4595 71.4871C77.7621 69.5348 79.0201 67.648 80.2781 65.7595C80.3493 65.8002 80.4224 65.8392 80.4937 65.8799C80.4687 66.0217 80.4188 66.1616 80.4224 66.3033C80.4634 68.1529 80.2727 70.0521 80.6469 71.8344C80.891 72.9983 80.9623 74.1216 81.0443 75.2802C81.3383 79.4861 81.5111 83.7096 82.0493 87.8871C82.5909 92.0895 83.5157 96.244 84.3015 100.586ZM112.845 138.411C117.439 139.957 121.99 140.156 126.698 139.187C126.464 141.21 126.19 143.132 126.045 145.063C125.98 145.951 125.563 146.367 124.779 146.452C122.988 146.645 121.188 146.922 119.395 146.904C117.264 146.883 115.128 146.596 113.152 145.697C112.849 145.559 112.459 145.139 112.469 144.861C112.542 142.748 112.705 140.638 112.845 138.409V138.411ZM27.9873 95.5991C29.5197 95.7975 31.0093 96.026 32.5079 96.166C33.16 96.2262 33.5093 96.5168 33.5877 97.1067C33.8175 98.8234 34.1864 100.545 34.1846 102.266C34.1846 104.858 33.5877 107.366 32.1996 109.614C32.0178 109.909 31.5563 110.286 31.298 110.238C29.6159 109.923 27.9516 109.501 26.2392 109.104C28.226 106.101 29.4163 100.522 27.9873 95.5991ZM87.4358 72.1232C87.2274 73.4359 86.985 74.7611 86.8104 76.0934C86.1778 80.8839 85.5809 85.6779 84.9394 90.4667C84.7951 91.5491 84.5261 92.6157 84.3158 93.691C84.2178 93.6804 84.118 93.668 84.02 93.6574C82.7531 86.9482 81.8123 80.2071 82.1116 73.6326C83.2591 72.9983 84.1982 72.4669 85.1515 71.9602C85.3867 71.8344 85.6789 71.6944 85.9213 71.7263C86.4077 71.7901 86.8799 71.9708 87.4358 72.1232ZM74.2304 19.8919C74.0326 18.8555 74.4585 18.2779 75.3886 17.998C76.4381 17.6826 77.4592 17.2575 78.5247 17.0147C83.2609 15.9358 88.0256 16.1272 92.7761 16.8978C99.9945 18.0706 106.837 20.2763 112.981 24.3582C113.754 24.8719 114.116 25.4158 113.738 26.3087C112.239 25.4265 110.787 24.4521 109.235 23.6761C102.829 20.4783 96.0441 18.5366 88.9059 17.8882C83.8864 17.4311 78.9452 17.711 74.2322 19.8919H74.2304ZM95.162 71.2834C95.2725 71.3578 95.3812 71.434 95.4917 71.5084C91.7408 77.2432 88.546 83.272 85.6629 89.5047C86.3453 83.7752 87.1882 78.0971 88.047 72.419C88.0862 72.1621 88.2822 71.9283 88.3517 71.7883C89.469 72.4615 90.4615 73.1613 91.5413 73.6804C92.5569 74.1676 93.414 73.7672 93.8916 72.9346C94.2337 72.3393 94.7326 71.8308 95.1603 71.2834H95.162ZM94.5901 70.9929L94.3887 70.8246C94.4243 70.4242 94.4653 70.0255 94.4938 69.6234C94.558 68.7128 94.6738 67.8004 94.6667 66.888C94.6524 65.2953 93.7757 64.5955 92.2326 65.0437C91.2205 65.336 90.2851 65.8835 89.3068 66.2963C89.1322 66.3707 88.913 66.3459 88.7152 66.3654C88.8346 66.2024 88.9308 66.0128 89.0805 65.8852C89.2106 65.7754 89.4013 65.7382 89.5652 65.6673C93.1004 64.1402 96.6535 62.6502 100.162 61.0664C101.516 60.4552 102.776 59.6349 104.351 58.758C104.241 59.681 104.412 60.5987 104.029 61.0717C101.839 63.7841 99.5597 66.4274 97.2165 69.0104C96.4931 69.8076 95.4757 70.3374 94.5918 70.9893L94.5901 70.9929ZM4.42201 99.0254C3.84112 98.4798 3.23706 97.9996 2.75952 97.4185C2.56886 97.1865 2.51006 96.6426 2.65617 96.3963C2.80763 96.1412 3.29409 95.9286 3.60948 95.9569C4.1868 96.0083 4.75344 96.2316 5.31295 96.414C7.28191 97.0554 9.22771 97.7693 11.2181 98.3292C12.068 98.5683 12.3371 99.0077 12.3816 99.8439C11.995 99.7323 11.6707 99.6791 11.3802 99.5498C10.0848 98.9705 8.81076 98.3416 7.50643 97.7835C5.92056 97.1067 5.15258 97.4132 4.42201 99.0254ZM1.84899 96.0154C1.29661 95.5034 0.763824 95.0676 1.14336 94.3625C1.50686 93.6875 2.18754 93.7902 2.80585 93.9196C3.18004 93.9975 3.53463 94.1605 3.9017 94.2739C6.21813 94.9879 8.51853 95.7691 10.8653 96.3715C11.7277 96.593 11.8774 96.9579 11.7865 97.7693C11.3588 97.6577 10.9829 97.5851 10.6265 97.4593C8.7288 96.7878 6.8311 96.1182 4.9441 95.4201C3.80548 94.9985 2.74527 94.8816 1.84899 96.0154ZM84.9893 250.659C85.0178 250.597 85.0481 250.537 85.0766 250.475C85.5025 250.644 85.923 250.835 86.3578 250.975C89.7113 252.05 93.1378 252.034 96.5751 251.549C98.7632 251.241 100.894 250.667 102.728 249.382C103.788 248.64 104.688 247.671 105.732 246.902C107.008 245.965 108.36 245.134 109.681 244.255C109.731 244.326 109.781 244.397 109.832 244.468C109.56 244.682 109.292 244.902 109.016 245.111C107.42 246.324 105.835 247.554 104.221 248.739C103.366 249.368 102.512 250.052 101.555 250.484C96.6463 252.706 91.5769 252.789 86.4398 251.379C85.9284 251.239 85.4704 250.9 84.9893 250.656V250.659ZM85.6255 66.3246C83.8382 64.8754 83.8151 64.7868 84.5902 62.9036C85.2067 63.8177 85.8749 64.8099 86.5449 65.8055C86.2669 65.9632 85.9622 66.135 85.6255 66.3246ZM26.2196 107.209C25.8864 107.708 25.6548 108.055 25.3002 108.583C25.0917 107.921 24.9527 107.476 24.7656 106.876C25.3162 107.001 25.694 107.088 26.2196 107.209Z" fill="black"/>
<path d="M112.687 169.168C110.836 168.842 110.057 167.689 110.553 165.959C110.927 164.659 111.442 163.399 111.891 162.133C111.809 162.08 111.747 162.019 111.729 162.032C110.971 162.517 110.191 162.684 109.4 162.133C108.527 161.525 108.441 160.602 108.539 159.67C109.015 155.135 109.503 150.596 112.422 146.649C110.752 145.986 111.495 144.579 111.289 143.415C109.501 143.676 107.753 143.959 105.998 144.183C99.7403 144.976 93.461 145.199 87.1532 144.96C83.0085 144.804 78.8746 144.633 74.803 143.789C73.3259 143.483 71.8665 143.093 70.3733 142.735C70.3733 143.734 70.2895 144.753 70.3858 145.754C71.2803 154.949 72.2033 164.142 73.1209 173.335C74.338 185.522 75.6476 197.702 76.7453 209.9C77.3386 216.483 77.5827 223.096 77.9534 229.699C77.9872 230.293 78.1672 230.668 78.7196 230.824C80.4516 231.311 82.1622 231.939 83.928 232.217C86.6471 232.644 89.3734 232.399 92.0569 231.742C92.7091 231.583 92.9817 231.303 92.9478 230.596C92.6734 224.668 92.4721 218.736 92.1691 212.81C91.9001 207.534 91.5954 202.257 91.1873 196.99C90.6813 190.429 90.1236 183.871 89.4589 177.324C88.8085 170.925 88.0085 164.542 87.2458 158.155C87.0106 156.194 86.7024 154.24 86.3709 152.293C86.3121 151.946 86.0306 151.574 85.7455 151.338C85.1771 150.867 84.5196 150.505 83.9351 150.052C83.7088 149.877 83.5805 149.574 83.4095 149.329C83.5021 149.233 83.5966 149.14 83.6892 149.044C84.8403 149.728 86.011 150.387 87.1282 151.122C87.3385 151.26 87.3955 151.703 87.4365 152.015C88.2847 158.451 89.1952 164.881 89.9365 171.329C90.6635 177.663 91.2782 184.011 91.827 190.362C92.2939 195.772 92.6895 201.194 92.9567 206.617C93.3969 215.581 93.7212 224.551 94.0472 233.519C94.0775 234.334 94.5123 234.593 95.1021 234.826C97.921 235.948 100.863 236.187 103.856 235.98C105.886 235.84 107.85 235.422 109.699 234.532C110.214 234.286 110.424 233.974 110.449 233.384C110.891 223.178 111.44 212.977 111.798 202.769C112.185 191.763 112.397 180.751 112.686 169.742C112.691 169.568 112.686 169.393 112.686 169.17L112.687 169.168Z" fill="white"/>
<path d="M108.434 64.7515C106.752 67.2884 105.645 69.829 104.767 72.4687C104.542 73.1437 104.182 73.4838 103.5 73.6451C102.384 73.9108 101.289 74.2598 100.047 74.6124C100.644 75.399 101.176 76.0952 101.704 76.795C102.443 77.7818 102.418 77.9076 101.647 78.8501C96.9266 84.6221 92.2135 90.4012 87.504 96.182C87.0194 96.7773 86.6452 97.4788 86.0999 98.0103C85.225 98.8643 85.2393 99.7625 85.4798 100.879C85.7952 102.337 86.0019 103.85 86.0072 105.34C86.0465 117.713 86.0304 130.086 86.0304 142.459C86.0304 143.734 86.0304 143.749 87.2795 143.811C95.1108 144.204 102.889 143.75 110.611 142.363C111.299 142.239 111.518 141.988 111.549 141.29C111.903 132.825 112.283 124.362 112.68 115.899C112.855 112.169 112.017 108.562 111.431 104.925C110.749 100.698 109.993 96.4832 109.295 92.2596C109.209 91.7476 109.284 91.209 109.284 90.6829C109.409 90.6616 109.535 90.6386 109.66 90.6173C109.801 90.9043 110.018 91.1789 110.071 91.4819C111.304 98.4869 112.603 105.483 113.685 112.513C114.018 114.676 113.828 116.933 113.744 119.142C113.525 124.895 113.254 130.646 112.947 136.395C112.899 137.287 113.118 137.707 114.002 137.952C117.994 139.056 122.008 139.265 126.078 138.467C126.582 138.368 126.823 138.166 126.867 137.608C127.505 129.545 128.255 121.49 128.788 113.422C129.107 108.601 128.423 103.804 127.698 99.0467C126.812 93.2411 125.752 87.4603 124.677 81.6847C124.383 80.0991 123.829 78.5525 123.282 77.0253C122.414 74.6017 120.987 72.5165 118.799 71.1116C115.412 68.9378 111.942 66.8934 108.436 64.7515H108.434ZM118.01 72.0878C118.022 72.1976 118.033 72.3093 118.045 72.4191C117.983 72.4758 117.929 72.5591 117.855 72.5874C115.057 73.6557 113.461 75.8702 112.183 78.4072C110.656 81.442 110.011 84.6877 109.76 88.036C109.736 88.3496 109.644 88.6561 109.583 88.9679C109.487 88.9679 109.393 88.9644 109.296 88.9626C109.221 88.6118 109.072 88.2593 109.084 87.912C109.239 83.1782 110.39 78.735 113.418 74.9862C114.296 73.9002 115.617 73.1526 116.787 72.3234C117.094 72.1055 117.596 72.1604 118.01 72.0896V72.0878Z" fill="#A40301"/>
<path d="M77.4615 73.4412C77.2459 73.2977 77.1408 73.241 77.0517 73.1648C75.1398 71.5172 75.211 72.0611 76.5207 69.7881C77.2103 68.5904 78.005 67.4495 78.7516 66.2838L78.6394 66.0605C75.8596 67.4708 73.0728 68.8686 70.3127 70.3142C70.0329 70.4613 69.8227 70.8865 69.7318 71.2231C69.1384 73.4128 68.5878 75.615 68.0194 77.8118C67.9749 77.9801 67.9107 78.1449 67.8394 78.3061C67.8234 78.3397 67.7397 78.345 67.5401 78.4106C67.3352 76.0898 68.2029 74.0028 68.5575 71.751C68.1655 72.2223 67.704 72.6546 67.3904 73.1719C65.4802 76.3325 63.5665 79.4913 61.7258 82.6909C58.939 87.5327 56.2109 92.4065 53.4597 97.2661C53.4188 97.3387 53.3974 97.422 53.3564 97.5318C54.7213 98.4407 56.0381 99.3903 56.5459 101.006C56.4657 101.084 56.3838 101.162 56.3036 101.242C56.1058 101.072 55.892 100.917 55.712 100.73C55.2808 100.283 54.8906 99.796 54.4415 99.369C53.4366 98.4141 52.2498 98.0421 50.8315 97.934C45.4449 97.5212 40.069 96.9685 34.6877 96.4689C34.5755 96.4582 34.4614 96.4689 34.2494 96.4689C35.1011 98.8464 35.2597 101.24 35.0049 103.662C34.7483 106.092 34.0391 108.385 32.6457 110.603C34.8124 111.03 36.8616 111.475 38.925 111.834C44.1601 112.747 49.4006 113.625 54.7391 113.709C57.7469 113.755 60.2932 112.745 62.2408 110.475C64.0476 108.367 65.7475 106.165 67.4599 103.977C67.6684 103.711 67.7468 103.267 67.7272 102.914C67.4617 98.2281 67.1 93.5457 66.9057 88.8561C66.797 86.2377 66.9325 83.6068 67.002 80.983C67.0144 80.4976 67.2461 80.0192 67.3761 79.5374C67.4742 79.5515 67.5704 79.5639 67.6684 79.5781C67.7111 79.819 67.7985 80.0635 67.7931 80.3027C67.5846 87.8162 68.4114 95.2836 68.8836 102.763C69.4895 112.359 69.1242 121.947 68.8195 131.538C68.7357 134.194 68.6965 136.853 68.5201 139.504C68.4524 140.513 68.8302 141.011 69.714 141.227C72.5329 141.915 75.3393 142.675 78.1885 143.219C80.0756 143.578 82.0249 143.607 83.944 143.805C84.7672 143.89 85.0327 143.557 85.0327 142.751C85.0078 130.025 85.006 117.3 85.0006 104.576C85.0006 103.311 84.7066 102.188 83.9761 101.089C80.3749 95.6663 78.1101 89.6445 76.2427 83.4668C75.6031 81.3533 75.1594 79.1813 74.6088 77.0394C74.4413 76.3856 74.6319 75.9002 75.138 75.475C75.8846 74.8496 76.608 74.1959 77.4669 73.4447L77.4615 73.4412ZM73.0817 91.891C73.0817 91.852 73.0817 91.813 73.0817 91.7758C72.1337 91.7758 71.1858 91.79 70.2396 91.7705C69.4164 91.7545 68.9923 91.3223 68.9941 90.4896C68.9941 89.664 68.9691 88.8402 68.9816 88.0146C68.9977 86.9587 69.3808 86.5654 70.4445 86.5885C72.1623 86.6239 73.88 86.6948 75.5977 86.7692C76.4958 86.8081 76.87 87.1837 76.8842 88.1103C76.8985 89.0227 76.845 89.9368 76.8219 90.8492C76.8005 91.6589 76.3532 92.0238 75.5692 92.0026C74.7406 91.9795 73.9103 91.9299 73.0817 91.8927V91.891ZM83.8941 106.502C83.8994 107.74 83.1297 108.672 82.0748 108.704C81.036 108.736 80.2395 107.804 80.2252 106.542C80.211 105.293 80.9986 104.333 82.0338 104.338C83.0869 104.342 83.8888 105.276 83.8941 106.503V106.502ZM80.0987 121.374C80.0934 120.168 80.84 119.261 81.8699 119.229C82.9568 119.194 83.8549 120.159 83.8709 121.376C83.8852 122.577 83.062 123.527 81.9964 123.536C80.979 123.545 80.1058 122.551 80.1005 121.376L80.0987 121.374Z" fill="#A40301"/>
<path d="M73.7642 34.701C73.8105 33.3209 74.0832 31.9496 74.1722 30.5695C74.2364 29.565 74.7745 29.0796 75.6565 28.7235C78.3757 27.6233 81.2374 27.1538 84.1062 26.6684C88.1083 25.9898 92.1103 25.3149 96.0893 24.5229C97.5183 24.2395 98.8815 23.6212 100.337 23.1357C100.323 23.3253 100.325 23.4387 100.303 23.5503C99.6673 26.9093 100.373 30.0061 102.226 32.8443C103.085 34.1588 103.359 35.6116 103.504 37.1192C103.573 37.8545 103.646 38.5879 103.691 39.3249C103.725 39.8706 103.864 40.3082 104.477 40.4517C105.089 40.5952 105.403 40.2444 105.695 39.7944C106.178 39.0539 106.613 38.2602 107.205 37.6118C108.705 35.9641 110.929 36.2299 112.046 38.1521C112.294 38.5791 112.479 39.0663 112.575 39.5482C113.122 42.2534 111.716 45.6656 109.325 47.0829C108.475 47.5861 107.335 48.0219 106.415 47.8872C105.23 47.7154 104.926 47.687 104.589 49.037C103.969 51.5138 103.349 53.9746 103.393 56.5204C103.416 57.8403 102.996 58.6481 101.804 59.1141C101.777 59.1247 101.752 59.1442 101.725 59.1566C97.1922 61.2099 92.6609 63.2668 88.1225 65.3059C87.9622 65.3786 87.6521 65.3378 87.5202 65.2262C86.2141 64.1154 85.423 62.7831 85.8203 60.953C85.9255 60.9406 86.0395 60.914 86.1536 60.9176C90.3962 61.0487 94.2361 59.7625 97.7518 57.5107C98.91 56.7684 99.8971 55.7568 100.936 54.8391C101.062 54.7275 101.03 54.4405 101.071 54.2332C100.865 54.2687 100.654 54.2864 100.457 54.3484C100.353 54.382 100.273 54.4936 100.184 54.5716C97.4185 56.9651 94.2094 58.5223 90.667 59.3603C86.8592 60.2621 83.1654 60.1398 79.9063 57.6153C75.824 54.4529 73.8408 50.1585 73.5896 45.1394C73.4167 41.6723 73.6466 38.1822 73.7642 34.7045V34.701Z" fill="white"/>
<path d="M114.364 22.3439C114.756 18.6253 115.179 15.0802 115.462 11.5245C115.515 10.8442 115.203 9.94602 114.735 9.45351C113.769 8.43836 112.671 7.48168 111.472 6.75886C106.779 3.93133 101.588 2.49631 96.2087 1.67427C92.228 1.0666 88.233 0.916009 84.231 1.48825C82.107 1.7912 80.0382 2.26776 78.1138 3.27228C76.6527 4.03408 75.7136 5.03151 75.5835 6.80846C75.3804 9.57221 74.9634 12.3182 74.6445 15.0731C74.6213 15.2733 74.6409 15.4788 74.6409 15.5975C83.4042 12.2864 92.0961 13.5903 100.752 15.9997C105.172 17.2292 109.389 18.9654 113.22 21.5325C113.559 21.7593 113.885 22.0038 114.364 22.3439Z" fill="#A40301"/>
<path d="M26.6033 106.078C27.4889 103.479 27.8471 100.677 27.3838 97.7942C27.3482 97.5674 27.0702 97.3602 26.8706 97.183C26.3093 96.6852 25.6162 96.2936 25.1761 95.709C23.9002 94.0153 22.3393 92.7433 20.422 91.8114C18.5618 90.9096 16.7888 89.8325 14.9766 88.8351C14.426 88.5321 13.8469 87.9191 13.234 88.5481C12.6531 89.1433 12.9667 89.9228 13.4211 90.4012C14.3494 91.3809 15.4043 92.2401 16.4235 93.133C16.7229 93.3953 17.0775 93.5972 17.6316 93.9834C17.0864 94.1464 16.7834 94.2811 16.4681 94.3254C13.209 94.7789 10.0177 94.3679 6.85842 93.5529C5.99778 93.3315 5.12644 93.1437 4.25332 92.9789C3.93081 92.9187 3.58691 92.9683 3.2537 92.9683C3.24122 93.0392 3.22875 93.11 3.21627 93.1809C4.33173 93.6008 5.4258 94.0968 6.56976 94.421C8.35697 94.9259 10.1798 95.298 11.976 95.7728C12.1809 95.8277 12.4838 96.2387 12.4375 96.3982C12.0757 97.6472 12.8847 98.6641 13.0878 99.7926C13.1449 100.112 13.7311 100.337 14.075 100.604C14.0518 100.677 14.0287 100.749 14.0055 100.822C13.6812 100.822 13.3231 100.911 13.0362 100.808C11.4521 100.236 9.88404 99.6243 8.31599 99.0113C7.7939 98.8076 7.30745 98.4621 6.77111 98.3558C6.39513 98.2814 5.78039 98.3771 5.6022 98.6287C5.42401 98.8785 5.51846 99.5233 5.73941 99.8086C6.1831 100.384 6.74438 100.898 7.33953 101.325C10.7928 103.807 14.6791 105.141 18.9057 105.527C19.7913 105.609 20.684 105.621 21.5713 105.685C23.1875 105.802 24.8037 105.935 26.6069 106.077L26.6033 106.078ZM16.5073 100.046C18.0094 98.4515 22.5692 98.4355 22.8614 100.115C20.7071 99.1141 18.6134 99.5322 16.5073 100.046Z" fill="white"/>
<path d="M123.651 147.776C120.121 148.295 116.754 147.985 113.406 146.971C111.911 149.258 110.742 151.654 110.332 154.359C110.063 156.138 109.833 157.923 109.591 159.706C109.567 159.881 109.51 160.087 109.575 160.23C109.758 160.634 109.922 161.238 110.236 161.343C110.562 161.451 111.214 161.183 111.438 160.873C111.877 160.267 112.196 159.544 112.417 158.825C112.675 157.984 112.76 157.091 112.953 156.228C113.038 155.844 113.201 155.477 113.327 155.103C113.423 155.103 113.52 155.103 113.616 155.103C113.684 155.404 113.808 155.704 113.81 156.005C113.817 159.142 113.19 162.151 111.973 165.049C111.725 165.639 111.513 166.28 111.479 166.907C111.46 167.262 111.756 167.79 112.062 167.953C112.311 168.086 112.958 167.91 113.14 167.662C114.077 166.381 115.007 165.081 115.77 163.694C116.319 162.694 116.59 161.548 117.008 160.476C117.123 160.182 117.322 159.92 117.646 159.707C117.611 161.22 117.215 162.636 116.568 163.961C115.927 165.27 115.154 166.516 114.378 167.894C115.485 167.637 116.283 167.005 116.941 166.215C118.354 164.516 119.353 162.578 120.118 160.514C120.253 160.149 120.46 159.81 120.793 159.511C121.043 160.625 120.533 161.577 120.118 162.523C119.687 163.508 119.15 164.448 118.822 165.554C119.603 164.661 120.462 163.825 121.148 162.866C122.604 160.829 123.329 158.492 123.658 156.035C124.022 153.33 123.944 150.623 123.65 147.779L123.651 147.776Z" fill="white"/>
<path d="M105.807 60.7883C99.0238 67.354 93.9794 74.972 89.9309 83.2562C88.1437 86.9128 86.6452 90.7059 84.9595 94.4122C84.4232 95.5903 84.5497 96.6869 84.9952 97.9537C85.6135 97.1511 86.1623 96.4035 86.7467 95.6824C91.3333 90.0309 95.9216 84.3812 100.522 78.7438C101.319 77.7694 101.346 77.796 100.57 76.7809C100.104 76.1697 99.6653 75.5372 99.1913 74.9313C98.7138 74.3201 98.9044 73.9852 99.5976 73.7939C100.742 73.4785 101.894 73.188 103.017 72.8089C103.347 72.6972 103.696 72.3713 103.849 72.0541C105.034 69.5809 106.151 67.0741 107.347 64.6044C107.596 64.0871 107.645 63.7222 107.32 63.242C106.793 62.4625 106.328 61.6423 105.807 60.7883Z" fill="white"/>
<path d="M84.3074 100.586C83.5198 96.2422 82.5968 92.0895 82.0551 87.8872C81.517 83.7115 81.3423 79.4861 81.0501 75.2803C80.9699 74.1216 80.8969 72.9984 80.6528 71.8345C80.2786 70.0522 80.471 68.153 80.4282 66.3034C80.4247 66.1635 80.4746 66.0217 80.4995 65.88C80.4282 65.8392 80.3552 65.8003 80.2839 65.7595C79.0259 67.6463 77.7661 69.5331 76.4654 71.4872C77.0837 72.0134 77.6093 72.4776 78.1528 72.9187C78.6072 73.2854 78.6161 73.6061 78.1653 73.9923C77.4222 74.6265 76.7184 75.3069 75.97 75.934C75.5548 76.283 75.4675 76.6462 75.5744 77.1742C77.0908 84.6292 79.7351 91.6838 83.1937 98.4497C83.5394 99.1247 83.894 99.7961 84.3074 100.586Z" fill="white"/>
<path d="M112.849 138.411C112.709 140.639 112.546 142.749 112.473 144.863C112.465 145.141 112.853 145.561 113.156 145.699C115.132 146.596 117.268 146.884 119.4 146.906C121.192 146.923 122.992 146.647 124.783 146.454C125.567 146.369 125.984 145.951 126.049 145.065C126.192 143.132 126.468 141.21 126.702 139.188C121.994 140.157 117.443 139.959 112.849 138.412V138.411Z" fill="white"/>
<path d="M27.9931 95.5991C29.4221 100.522 28.2318 106.101 26.2451 109.104C27.9574 109.501 29.6199 109.923 31.3038 110.238C31.5622 110.286 32.0237 109.909 32.2054 109.615C33.5935 107.366 34.1886 104.858 34.1904 102.266C34.1904 100.546 33.8252 98.8235 33.5935 97.1068C33.5151 96.5168 33.1659 96.2263 32.5137 96.166C31.0151 96.0261 29.5255 95.7975 27.9931 95.5991Z" fill="white"/>
<path d="M87.4419 72.1231C86.886 71.969 86.4138 71.7901 85.9273 71.7263C85.6832 71.6944 85.3927 71.8343 85.1575 71.9601C84.2042 72.4668 83.2652 72.9983 82.1177 73.6326C81.8201 80.2071 82.7591 86.9482 84.026 93.6573C84.124 93.668 84.2238 93.6804 84.3218 93.691C84.5339 92.6174 84.8012 91.5509 84.9455 90.4666C85.587 85.6779 86.1839 80.8839 86.8165 76.0934C86.9929 74.7593 87.2334 73.4359 87.4419 72.1231ZM85.3767 76.205C85.6672 76.6408 85.9701 76.8959 85.9487 77.1209C85.9255 77.3618 85.5977 77.5744 85.4034 77.7977C85.1985 77.5833 84.8582 77.3849 84.8297 77.1493C84.8012 76.9225 85.097 76.6585 85.3767 76.205ZM84.3557 84.0037C84.623 84.4555 84.9099 84.723 84.8813 84.9533C84.8511 85.1925 84.5178 85.3944 84.3165 85.6141C84.1276 85.3891 83.8051 85.173 83.7908 84.9391C83.7766 84.7035 84.0706 84.4502 84.3575 84.0037H84.3557Z" fill="white"/>
<path d="M74.2345 19.8936C78.9476 17.7127 83.8905 17.4346 88.9082 17.8899C96.0464 18.5383 102.834 20.48 109.238 23.6778C110.79 24.4538 112.242 25.4282 113.74 26.3105C114.118 25.4176 113.756 24.8737 112.983 24.3599C106.839 20.2781 99.9986 18.0724 92.7785 16.8996C88.028 16.1289 83.2633 15.9376 78.527 17.0165C77.4615 17.2592 76.4405 17.6844 75.391 17.9998C74.4608 18.2797 74.0349 18.8555 74.2327 19.8936H74.2345Z" fill="white"/>
<path d="M95.1661 71.2852C94.7385 71.8326 94.2396 72.3411 93.8974 72.9363C93.4199 73.769 92.561 74.1676 91.5471 73.6822C90.4673 73.1631 89.4748 72.4633 88.3576 71.7901C88.2881 71.93 88.0921 72.1639 88.0529 72.4208C87.194 78.0989 86.3512 83.7769 85.6688 89.5064C88.55 83.2756 91.7467 77.2467 95.4976 71.5102C95.3871 71.4357 95.2784 71.3596 95.1679 71.2852H95.1661Z" fill="white"/>
<path d="M94.5942 70.9928C95.478 70.3409 96.4972 69.8094 97.2189 69.0139C99.5621 66.4309 101.841 63.7876 104.031 61.0752C104.414 60.6004 104.243 59.6845 104.354 58.7615C102.778 59.6384 101.519 60.4587 100.164 61.0699C96.654 62.652 93.1028 64.1437 89.5675 65.6708C89.4036 65.7417 89.213 65.7789 89.0829 65.8888C88.9332 66.0163 88.837 66.2059 88.7176 66.3689C88.9154 66.3476 89.1328 66.3742 89.3092 66.2998C90.2874 65.887 91.2229 65.3395 92.235 65.0472C93.7781 64.6008 94.6548 65.2988 94.669 66.8915C94.678 67.8021 94.5621 68.7145 94.4962 69.6269C94.4677 70.0273 94.4267 70.4277 94.3911 70.8281L94.5924 70.9964L94.5942 70.9928Z" fill="white"/>
<path d="M86.2746 245.222C86.4974 245.18 86.7522 245.192 86.9393 245.088C89.1541 243.863 91.0483 242.28 92.374 240.106C93.1829 238.782 93.9171 237.413 94.6851 236.065C94.6013 236.013 94.5158 235.964 94.432 235.912C94.3002 236.127 94.1648 236.338 94.0365 236.554C93.2845 237.824 92.5575 239.108 91.7681 240.356C91.6113 240.605 91.2407 240.823 90.9396 240.866C87.1513 241.406 83.429 242.106 79.8064 243.458C75.0542 245.229 70.1077 245.314 65.1594 244.225C64.1705 244.007 63.2243 243.589 62.1677 243.449C62.8929 243.773 63.5896 244.197 64.3469 244.402C69.5286 245.807 74.7263 245.764 79.7458 243.872C83.2811 242.54 86.9108 241.823 90.6081 241.28C90.7097 241.266 90.8184 241.293 91.0001 241.307C89.7867 243.121 87.8462 243.948 86.296 245.235C86.2924 245.231 86.2728 245.219 86.2728 245.219L86.2746 245.222Z" fill="white"/>
<path d="M4.42613 99.0254C5.15669 97.4132 5.92468 97.1049 7.51054 97.7834C8.81487 98.3415 10.0889 98.9704 11.3843 99.5498C11.6748 99.6791 11.9991 99.7322 12.3857 99.8439C12.343 99.0076 12.0721 98.5683 11.2222 98.3291C9.23182 97.7693 7.28425 97.0553 5.31706 96.414C4.75577 96.2315 4.19092 96.0083 3.61359 95.9569C3.29642 95.9285 2.81174 96.1411 2.66028 96.3963C2.51417 96.6425 2.57298 97.1864 2.76364 97.4185C3.24118 97.9996 3.84524 98.4797 4.42613 99.0254Z" fill="white"/>
<path d="M1.85326 96.0155C2.74954 94.8817 3.80975 94.9986 4.94837 95.4203C6.83537 96.1201 8.73306 96.7897 10.6308 97.4594C10.9871 97.5852 11.3631 97.6561 11.7907 97.7694C11.8816 96.958 11.7319 96.5931 10.8695 96.3716C8.5228 95.7693 6.22418 94.988 3.90596 94.274C3.5389 94.1606 3.18431 93.9976 2.81012 93.9197C2.19003 93.7886 1.51113 93.6858 1.14763 94.3626C0.768092 95.0677 1.30088 95.5018 1.85326 96.0155Z" fill="white"/>
<path d="M84.9953 250.659C85.4782 250.906 85.9343 251.242 86.4457 251.382C91.5829 252.791 96.6505 252.709 101.561 250.488C102.518 250.054 103.37 249.37 104.227 248.743C105.843 247.556 107.427 246.328 109.022 245.114C109.298 244.905 109.567 244.686 109.838 244.471C109.788 244.4 109.738 244.329 109.687 244.259C108.366 245.136 107.014 245.968 105.738 246.905C104.692 247.672 103.794 248.642 102.734 249.386C100.9 250.668 98.7691 251.244 96.581 251.552C93.1438 252.038 89.7172 252.054 86.3638 250.978C85.9272 250.838 85.5085 250.647 85.0826 250.479C85.0541 250.541 85.0238 250.601 84.9953 250.663V250.659Z" fill="white"/>
<path d="M85.6313 66.3246C85.9699 66.1333 86.2728 65.9614 86.5508 65.8055C85.8808 64.8116 85.2108 63.8177 84.5961 62.9036C83.821 64.7886 83.8441 64.8754 85.6313 66.3246Z" fill="white"/>
<path d="M26.2256 107.209C25.6999 107.088 25.3222 107.001 24.7716 106.875C24.9605 107.476 25.0994 107.921 25.3061 108.583C25.659 108.055 25.8924 107.708 26.2256 107.209Z" fill="white"/>
<path d="M118.01 72.0877C117.596 72.1586 117.094 72.1037 116.787 72.3216C115.617 73.1507 114.296 73.8983 113.418 74.9843C110.39 78.7331 109.239 83.1764 109.084 87.9102C109.074 88.2574 109.222 88.61 109.296 88.9607C109.393 88.9607 109.487 88.9643 109.583 88.9661C109.644 88.656 109.737 88.3478 109.76 88.0342C110.009 84.6858 110.656 81.4402 112.183 78.4053C113.461 75.8684 115.057 73.6521 117.855 72.5855C117.93 72.5572 117.983 72.4739 118.045 72.4172C118.033 72.3074 118.022 72.1958 118.01 72.0859V72.0877Z" fill="black"/>
<path d="M73.0816 91.8893C73.9101 91.9265 74.7387 91.9761 75.5691 91.9992C76.3531 92.0204 76.8003 91.6555 76.8217 90.8458C76.8449 89.9334 76.9001 89.0193 76.8841 88.1069C76.8698 87.1821 76.4956 86.8065 75.5976 86.7658C73.8799 86.6913 72.1621 86.6205 70.4444 86.585C69.3788 86.5638 68.9957 86.9553 68.9815 88.0112C68.969 88.8368 68.9957 89.6606 68.994 90.4862C68.994 91.3206 69.4163 91.7511 70.2395 91.7671C71.1874 91.7866 72.1354 91.7724 73.0816 91.7724C73.0816 91.8114 73.0816 91.8503 73.0816 91.8875V91.8893ZM72.9693 91.1505C72.9693 91.0868 72.9693 91.0248 72.9693 90.961C72.1693 90.961 71.3692 90.9433 70.5691 90.9681C70.0524 90.984 69.7976 90.821 69.8154 90.2665C69.8403 89.5313 69.8314 88.7925 69.8118 88.0555C69.7994 87.6055 69.9615 87.4195 70.4355 87.4407C72.0944 87.5116 73.7551 87.5293 75.4123 87.6321C75.6296 87.6463 75.9753 88.0147 76.0003 88.2468C76.0751 88.9767 76.0074 89.7191 76.0306 90.4543C76.0484 91.0017 75.8025 91.1771 75.2768 91.1576C74.5071 91.1275 73.7373 91.1505 72.9658 91.1505H72.9693Z" fill="black"/>
<path d="M83.894 106.502C83.8887 105.274 83.0868 104.342 82.0337 104.337C80.9985 104.333 80.2109 105.292 80.2251 106.541C80.2394 107.802 81.0359 108.734 82.0747 108.702C83.1296 108.67 83.8994 107.738 83.894 106.5V106.502ZM81.027 106.417C81.0697 105.88 81.2675 105.3 82.0231 105.185C82.5772 105.1 83.1474 105.807 83.1225 106.537C83.1011 107.198 82.8801 107.783 82.1246 107.894C81.5544 107.979 81.0341 107.297 81.027 106.417Z" fill="black"/>
<path d="M80.097 121.375C80.1024 122.549 80.9755 123.543 81.9929 123.534C83.0585 123.525 83.8835 122.576 83.8674 121.375C83.8514 120.158 82.9533 119.194 81.8664 119.227C80.8365 119.261 80.0881 120.166 80.0952 121.373L80.097 121.375ZM80.8828 121.298C80.8882 120.597 81.3746 120.014 81.9537 120.012C82.5489 120.012 83.0763 120.634 83.0549 121.376C83.0371 122.039 82.8375 122.624 82.0464 122.695C81.4209 122.751 80.8757 122.069 80.881 121.298H80.8828Z" fill="black"/>
<path d="M106.46 44.0729C107.39 43.9488 107.686 43.3731 107.68 42.7565C107.664 41.1071 108.598 40.3843 110.061 40.0796C110.105 40.0707 110.136 39.9981 110.339 39.7572C109.881 39.6703 109.517 39.5038 109.191 39.5587C107.896 39.782 106.937 41.093 106.921 42.3933C106.914 42.9071 106.649 43.4191 106.46 44.0729Z" fill="black"/>
<path d="M16.5072 100.046C18.6151 99.5322 20.707 99.1141 22.8613 100.115C22.5691 98.4338 18.0093 98.4515 16.5072 100.046Z" fill="black"/>
<path d="M85.3747 76.2051C85.0949 76.6568 84.7992 76.9226 84.8277 77.1494C84.8562 77.385 85.1983 77.5834 85.4014 77.7978C85.5957 77.5728 85.9235 77.362 85.9467 77.121C85.9681 76.8978 85.6651 76.6427 85.3747 76.2051Z" fill="black"/>
<path d="M84.3538 84.0056C84.0669 84.4503 83.7729 84.7054 83.7872 84.941C83.8014 85.1767 84.1257 85.3928 84.3128 85.616C84.5142 85.3981 84.8492 85.1962 84.8777 84.9552C84.9062 84.7249 84.6193 84.4574 84.352 84.0056H84.3538Z" fill="black"/>
<path d="M72.9694 91.1523C73.7392 91.1523 74.5107 91.1311 75.2805 91.1594C75.8043 91.1789 76.0502 91.0035 76.0342 90.4561C76.011 89.7191 76.0787 88.9768 76.0039 88.2486C75.9807 88.0165 75.6333 87.6463 75.4159 87.6339C73.7588 87.5311 72.098 87.5134 70.4391 87.4425C69.9634 87.4231 69.803 87.6091 69.8155 88.0573C69.8351 88.7943 69.844 89.5313 69.819 90.2683C69.7994 90.821 70.056 90.9858 70.5728 90.9699C71.3728 90.9451 72.1729 90.9628 72.9729 90.9628C72.9729 91.0266 72.9729 91.0886 72.9729 91.1523H72.9694Z" fill="white"/>
<path d="M81.0271 106.417C81.0343 107.297 81.5546 107.979 82.1248 107.894C82.8803 107.783 83.1012 107.198 83.1226 106.537C83.1458 105.806 82.5756 105.099 82.0232 105.185C81.2695 105.301 81.0717 105.88 81.0271 106.417Z" fill="white"/>
<path d="M80.8826 121.297C80.8755 122.067 81.4207 122.749 82.048 122.693C82.8391 122.622 83.0387 122.035 83.0565 121.375C83.0779 120.632 82.5505 120.01 81.9553 120.01C81.3744 120.01 80.8897 120.595 80.8844 121.297H80.8826Z" fill="white"/>
</g>
<defs>
<clipPath id="clip0_169_5">
<rect width="130" height="255" fill="white" transform="matrix(-1 0 0 1 130 0)"/>
</clipPath>
</defs>
</svg>
