<svg width="130" height="255" viewBox="0 0 130 255" fill="none" xmlns="http://www.w3.org/2000/svg">
<g clip-path="url(#clip0_28_71)">
<path d="M43.7253 245.222C43.8394 245.389 43.9267 245.587 44.0746 245.715C45.0279 246.548 45.6141 247.556 45.7781 248.824C45.885 249.65 46.1344 250.456 46.2627 251.28C46.4391 252.415 45.8761 253.225 44.8551 253.561C43.344 254.057 41.8009 254.554 40.2329 254.766C36.4143 255.282 32.6492 254.975 29.0303 253.526C27.1094 252.757 25.5396 251.551 24.2477 249.944C24.0464 249.694 23.5884 249.627 23.232 249.527C22.8988 249.435 22.5371 249.448 22.2057 249.35C21.9562 249.278 21.7424 249.09 21.5001 248.978C19.5846 248.101 18.6829 246.723 18.9823 244.544C19.2335 242.714 19.2086 240.846 19.4117 239.007C19.5347 237.902 19.8625 236.818 20.1031 235.698C20.0069 235.631 19.9195 235.546 19.8162 235.503C18.772 235.078 18.4869 234.298 18.4246 233.198C17.302 212.941 16.6177 192.67 16.2239 172.389C16.2026 171.273 16.2204 170.155 16.2204 169.086C9.67913 166.957 5.92116 162.751 5.21197 155.553C4.97677 153.158 5.14426 150.722 5.1799 148.303C5.18703 147.79 5.16565 147.46 4.57941 147.357C3.36774 147.147 2.94722 146.397 2.81892 145.189C1.74089 134.97 0.500705 124.769 0.04811 114.494C-0.163933 109.689 0.290445 104.927 1.02814 100.198C2.02421 93.8115 3.15391 87.4442 4.27471 81.077C5.36521 74.8781 8.83987 70.4525 14.4741 67.6126C16.4841 66.601 18.4067 65.4122 20.3312 64.2429C20.8051 63.9559 21.1918 63.4705 21.5161 63.0063C22.0418 62.2569 22.4017 61.3835 22.9844 60.689C23.4316 60.154 24.237 59.9077 24.654 59.3603C25.0424 58.8501 24.6255 57.9342 25.4166 57.4859C25.5503 57.4097 25.5895 57.0696 25.577 56.857C25.5217 55.8259 25.4754 54.7895 25.3364 53.7673C25.2848 53.3935 25.0335 53.0143 24.7858 52.7061C23.8218 51.5102 22.8293 50.3356 21.8315 49.1681C21.648 48.952 21.4128 48.7553 21.1615 48.6224C17.7154 46.8012 16.1794 43.8904 16.1669 40.0832C16.1669 39.6279 16.0814 39.1495 15.9246 38.7208C14.6488 35.2342 14.0536 31.7069 15.1833 28.0556C15.235 27.8908 15.2849 27.7083 15.2635 27.5418C14.7361 23.3288 14.198 19.1177 13.6687 14.9065C13.5725 14.1447 13.5707 13.3669 13.4139 12.6193C12.9702 10.5093 13.7828 8.83334 15.3989 7.64103C17.1523 6.34951 18.9876 5.07925 20.9637 4.19166C28.8414 0.662566 37.1199 -0.641356 45.721 0.292294C48.0001 0.540323 50.2042 1.15331 52.273 2.18086C54.3186 3.19777 55.418 4.73555 55.6193 7.09891C56.0096 11.6538 56.6172 16.1892 57.1535 20.7316C57.182 20.9708 57.3353 21.2241 57.4974 21.4155C60.2843 24.6948 59.502 28.5357 57.7184 31.0921C57.4582 31.466 57.3068 31.9992 57.3121 32.4563C57.3691 36.7047 57.7041 40.9637 57.501 45.1979C57.2426 50.5819 55.0759 55.1828 50.6604 58.5631C49.1244 59.7394 47.3782 60.4127 45.3469 60.8343C45.6694 61.1709 45.8672 61.4632 46.138 61.6457C47.8005 62.7636 49.406 63.9931 51.17 64.925C53.392 66.0996 55.7441 67.0333 58.0462 68.059C60.9774 69.3665 63.1335 71.5137 64.6962 74.2491C68.1245 80.255 71.5029 86.2874 74.9081 92.3056C75.6939 93.6946 76.5225 95.0605 77.2922 96.4583C77.5364 96.9012 77.8286 96.988 78.2972 96.9402C86.0662 96.1483 93.8334 95.3546 101.608 94.6194C102.306 94.5538 103.042 94.8975 103.762 95.0499C103.76 95.1367 103.757 95.2253 103.755 95.3121C103.958 95.0694 104.172 94.8355 104.361 94.5822C105.59 92.9221 107.224 91.8025 109.074 90.9025C110.8 90.0627 112.45 89.0671 114.132 88.1369C114.548 87.9084 114.936 87.6214 115.373 87.4478C116.964 86.8171 118.29 87.8854 118.015 89.5737C117.803 90.8794 116.926 91.7706 115.986 92.605C115.709 92.8495 115.406 93.0656 115.118 93.2942L115.209 93.6219C117.071 93.4129 118.943 93.2623 120.795 92.9735C122.434 92.7184 124.045 92.2861 125.675 91.9725C126.524 91.8096 127.336 91.8751 127.908 92.683C128.008 92.8229 128.247 92.8849 128.436 92.9398C130.087 93.4217 130.511 95.0587 129.337 96.3166C128.933 96.7506 128.69 97.3388 128.273 97.7605C127.448 98.5967 126.557 99.3691 125.683 100.156C125.51 100.312 125.267 100.395 125.098 100.556C120.458 104.987 114.758 106.604 108.502 106.76C108.471 106.76 108.443 106.76 108.413 106.76C107.76 106.771 106.96 106.558 106.497 106.86C106.062 107.139 105.961 107.956 105.756 108.551C105.432 109.49 104.747 109.972 103.812 110.176C99.2574 111.163 94.7314 112.306 90.1431 113.094C85.7615 113.847 81.3228 114.295 76.8949 114.74C75.4391 114.887 73.9227 114.715 72.4651 114.494C70.1238 114.137 68.3294 112.745 66.8024 111.041C65.2272 109.283 63.7393 107.448 62.1321 105.552C62.1089 105.889 62.0697 106.185 62.0715 106.482C62.1499 114.749 62.214 123.013 62.321 131.28C62.3584 134.143 62.4724 137.006 62.6025 139.867C62.647 140.841 62.3619 141.507 61.4354 141.924C61.1895 142.034 60.9418 142.434 60.9258 142.712C60.2308 155.16 58.677 167.522 57.248 179.899C56.325 187.903 55.5285 195.923 54.8781 203.954C54.1725 212.692 53.711 221.447 53.1051 230.194C53.0713 230.684 52.6917 231.152 52.4227 231.742C54.8407 234.123 57.6222 236.226 61.1503 237.169C62.4974 237.528 63.8569 237.851 65.1951 238.24C67.0411 238.775 68.3651 239.801 68.5825 241.874C68.6609 242.615 68.9317 243.336 69.0261 244.076C69.1616 245.127 68.611 245.858 67.6755 246.23C66.5796 246.668 65.4642 247.137 64.3131 247.347C58.4971 248.402 52.8378 247.984 47.4548 245.345C47.216 245.228 46.9577 245.146 46.7171 245.033C46.056 244.719 45.427 244.501 44.7285 245.027C44.4773 245.217 44.0479 245.171 43.6968 245.235C42.1466 243.947 40.2062 243.121 38.9927 241.307C39.1744 241.293 39.2831 241.265 39.3847 241.28C43.0821 241.821 46.7118 242.54 50.247 243.872C55.2683 245.763 60.4642 245.807 65.6459 244.402C66.4032 244.197 67.0999 243.771 67.8252 243.449C66.7685 243.589 65.8241 244.007 64.8334 244.225C59.8851 245.314 54.9387 245.231 50.1864 243.458C46.5639 242.106 42.8415 241.406 39.0533 240.866C38.7539 240.823 38.3833 240.605 38.2247 240.356C37.4353 239.108 36.7066 237.824 35.9564 236.554C35.8281 236.338 35.6927 236.125 35.5608 235.912C35.4771 235.964 35.3915 236.013 35.3078 236.065C36.0758 237.413 36.8099 238.781 37.6189 240.106C38.9446 242.278 40.8387 243.864 43.0536 245.088C43.2425 245.192 43.4955 245.18 43.7182 245.222H43.7253ZM17.3144 169.168C17.3144 169.391 17.3109 169.565 17.3144 169.74C17.6031 180.749 17.8152 191.762 18.2018 202.767C18.56 212.975 19.1088 223.176 19.5507 233.383C19.5756 233.972 19.7859 234.284 20.3009 234.531C22.1504 235.418 24.1141 235.836 26.1436 235.978C29.1372 236.185 32.079 235.946 34.898 234.825C35.4895 234.589 35.9243 234.33 35.9528 233.517C36.2789 224.547 36.6032 215.578 37.0433 206.615C37.3088 201.19 37.7044 195.771 38.173 190.36C38.7219 184.009 39.3348 177.661 40.0636 171.328C40.8049 164.879 41.7154 158.45 42.5636 152.013C42.6045 151.7 42.6616 151.258 42.8718 151.12C43.9891 150.385 45.1598 149.728 46.3108 149.042C46.4035 149.138 46.4979 149.232 46.5906 149.327C46.4178 149.572 46.2912 149.873 46.0649 150.05C45.4805 150.504 44.823 150.865 44.2546 151.336C43.9712 151.572 43.6879 151.944 43.6291 152.291C43.2977 154.238 42.9894 156.192 42.7542 158.154C41.9898 164.54 41.1915 170.924 40.5411 177.323C39.8765 183.869 39.3188 190.428 38.8127 196.988C38.4065 202.255 38.1 207.533 37.8309 212.809C37.528 218.735 37.3266 224.666 37.0522 230.594C37.0202 231.301 37.291 231.581 37.9432 231.74C40.6267 232.398 43.3547 232.642 46.0721 232.215C47.8379 231.937 49.5503 231.31 51.2805 230.823C51.8311 230.667 52.0128 230.291 52.0467 229.698C52.4173 223.096 52.6614 216.481 53.2548 209.898C54.3524 197.7 55.6603 185.52 56.8791 173.333C57.7968 164.14 58.7216 154.947 59.6143 145.752C59.7123 144.751 59.6268 143.734 59.6268 142.733C58.1336 143.091 56.6742 143.481 55.197 143.787C51.1255 144.631 46.9915 144.803 42.8469 144.959C36.5391 145.196 30.2597 144.975 24.0018 144.181C22.2467 143.958 20.4969 143.674 18.7114 143.414C18.5065 144.578 19.2478 145.984 17.5782 146.647C20.4969 150.596 20.9851 155.133 21.4609 159.668C21.5589 160.602 21.4733 161.525 20.6002 162.131C19.8091 162.68 19.0304 162.515 18.2713 162.03C18.2535 162.019 18.1911 162.08 18.1092 162.131C18.5582 163.398 19.0732 164.657 19.4473 165.958C19.9445 167.685 19.1658 168.838 17.3127 169.166L17.3144 169.168ZM21.5678 64.7514C18.0611 66.8933 14.5917 68.9378 11.2044 71.1116C9.01627 72.5165 7.58899 74.6017 6.72122 77.0253C6.17597 78.5506 5.6218 80.0991 5.32601 81.6847C4.25154 87.4602 3.19133 93.241 2.30574 99.0467C1.58052 103.804 0.896281 108.601 1.21524 113.422C1.7498 121.492 2.49997 129.545 3.13609 137.608C3.18064 138.166 3.41941 138.37 3.92546 138.467C7.99348 139.265 12.0098 139.054 16.0012 137.952C16.885 137.707 17.1042 137.287 17.0561 136.394C16.7478 130.646 16.477 124.895 16.2596 119.142C16.1758 116.933 15.9852 114.676 16.3184 112.513C17.4018 105.483 18.7007 98.4886 19.932 91.4818C19.9855 91.1788 20.2029 90.906 20.3436 90.6172C20.4684 90.6385 20.5949 90.6615 20.7196 90.6828C20.7196 91.209 20.7927 91.7476 20.7089 92.2596C20.0104 96.4831 19.2549 100.698 18.5724 104.925C17.9862 108.562 17.1487 112.169 17.3234 115.898C17.7207 124.362 18.1003 132.825 18.4548 141.29C18.4834 141.988 18.7025 142.241 19.3921 142.363C27.1147 143.75 34.8926 144.204 42.7239 143.811C43.973 143.749 43.973 143.734 43.973 142.459C43.973 130.086 43.9552 117.713 43.9962 105.34C44.0015 103.85 44.2082 102.337 44.5236 100.879C44.7642 99.7642 44.7784 98.8642 43.9035 98.0103C43.3583 97.4788 42.9859 96.779 42.4994 96.1819C37.7899 90.4011 33.0769 84.622 28.3567 78.8501C27.5852 77.9058 27.5584 77.7818 28.2997 76.795C28.8253 76.0934 29.3599 75.3971 29.9568 74.6123C28.7166 74.2598 27.6208 73.9107 26.5036 73.645C25.8211 73.482 25.4629 73.1436 25.2366 72.4686C24.3582 69.8289 23.2516 67.2884 21.5696 64.7514H21.5678ZM52.5403 73.4413C53.3991 74.1924 54.1226 74.8462 54.8692 75.4715C55.377 75.8967 55.5677 76.3822 55.3984 77.0359C54.8478 79.176 54.4023 81.3481 53.7644 83.4634C51.897 89.6411 49.634 95.6646 46.0311 101.086C45.3023 102.184 45.0065 103.307 45.0065 104.572C45.0029 117.298 44.9994 130.024 44.9744 142.748C44.9744 143.555 45.2382 143.888 46.0632 143.802C47.9822 143.601 49.9316 143.575 51.8186 143.215C54.666 142.671 57.4725 141.911 60.2932 141.224C61.1788 141.008 61.5548 140.51 61.487 139.5C61.3106 136.85 61.2714 134.191 61.1877 131.535C60.883 121.945 60.5177 112.357 61.1235 102.76C61.5957 95.2802 62.4225 87.8127 62.214 80.2992C62.2069 80.0583 62.2942 79.8156 62.3388 79.5746C62.4368 79.5605 62.533 79.5481 62.631 79.5339C62.7611 80.0158 62.9909 80.4959 63.0052 80.9796C63.0765 83.6033 63.2119 86.2324 63.1014 88.8527C62.9054 93.5422 62.5455 98.2246 62.28 102.911C62.2604 103.263 62.3388 103.708 62.5473 103.974C64.2579 106.162 65.9578 108.364 67.7664 110.472C69.7122 112.741 72.2602 113.751 75.268 113.705C80.6065 113.622 85.847 112.743 91.0821 111.831C93.1456 111.471 95.1947 111.026 97.3615 110.6C95.968 108.383 95.2589 106.089 95.0023 103.658C94.7457 101.235 94.9061 98.8429 95.7578 96.4654C95.544 96.4654 95.4317 96.4565 95.3194 96.4654C89.94 96.965 84.5623 97.5178 79.1757 97.9305C77.7573 98.0386 76.5706 98.4107 75.5656 99.3656C75.1166 99.7925 74.7246 100.278 74.2951 100.726C74.1152 100.914 73.9013 101.068 73.7036 101.238C73.6234 101.16 73.5414 101.082 73.4612 101.003C73.969 99.3868 75.2841 98.439 76.6508 97.5284C76.608 97.4185 76.5884 97.3353 76.5474 97.2626C73.7962 92.4013 71.0682 87.5275 68.2813 82.6874C66.4407 79.4878 64.5269 76.329 62.6167 73.1684C62.3031 72.6493 61.8416 72.2188 61.4496 71.7476C61.8042 73.9993 62.6738 76.0845 62.4671 78.4071C62.2675 78.3398 62.1838 78.3363 62.1677 78.3026C62.0964 78.1432 62.0323 77.9784 61.9878 77.8083C61.4193 75.6115 60.8687 73.4094 60.2754 71.2196C60.1845 70.883 59.9742 70.4578 59.6945 70.3108C56.9344 68.8633 54.1475 67.4673 51.3678 66.0571L51.2555 66.2803C52.0021 67.446 52.7969 68.587 53.4864 69.7846C54.7961 72.0576 54.8674 71.5137 52.9554 73.1613C52.8663 73.2375 52.7612 73.2942 52.5456 73.4377L52.5403 73.4413ZM29.6628 23.134C29.6771 23.3235 29.6753 23.4369 29.6967 23.5485C30.3328 26.9075 29.6272 30.0044 27.774 32.8425C26.9152 34.1571 26.6408 35.6098 26.4964 37.1175C26.4269 37.8527 26.3539 38.5861 26.3093 39.3231C26.2755 39.8688 26.1365 40.3064 25.5235 40.4499C24.9106 40.5934 24.597 40.2426 24.3047 39.7926C23.8218 39.0521 23.3871 38.2584 22.7955 37.61C21.2951 35.9624 19.0714 36.2281 17.9541 38.1503C17.7065 38.5773 17.5211 39.0645 17.4249 39.5464C16.8779 42.2517 18.2838 45.6638 20.6751 47.0811C21.525 47.5843 22.6654 48.0201 23.5849 47.8854C24.7698 47.7136 25.0745 47.6853 25.4113 49.0352C26.0314 51.512 26.6515 53.9728 26.6069 56.5186C26.5837 57.8385 27.0043 58.6463 28.1963 59.1123C28.2231 59.1229 28.248 59.1424 28.2747 59.1548C32.8078 61.2081 37.3391 63.265 41.8775 65.3041C42.0379 65.3768 42.348 65.336 42.4798 65.2244C43.7859 64.1136 44.5771 62.7813 44.1797 60.9512C44.0746 60.9388 43.9606 60.9123 43.8465 60.9158C39.6039 61.0469 35.7639 59.7607 32.2483 57.509C31.0901 56.7666 30.1029 55.755 29.0641 54.8373C28.9376 54.7257 28.9697 54.4387 28.9287 54.2314C29.1336 54.2669 29.3456 54.2846 29.5434 54.3466C29.6468 54.3803 29.727 54.4919 29.8161 54.5698C32.5815 56.9633 35.7907 58.5206 39.333 59.3585C43.1409 60.2603 46.8347 60.1381 50.0938 57.6135C54.176 54.4511 56.1592 50.1567 56.4105 45.1376C56.5833 41.6706 56.3535 38.1804 56.2359 34.7027C56.1895 33.3226 55.9169 31.9514 55.8278 30.5713C55.7637 29.5668 55.2255 29.0813 54.3435 28.7252C51.6244 27.6251 48.7627 27.1556 45.8939 26.6701C41.8918 25.9916 37.8897 25.3166 33.9108 24.5247C32.4817 24.2412 31.1186 23.6229 29.6628 23.1375V23.134ZM15.6359 22.3438C16.1152 22.0037 16.4413 21.7592 16.7799 21.5324C20.6109 18.9653 24.8286 17.2309 29.2476 15.9996C37.904 13.5902 46.5959 12.2863 55.3592 15.5974C55.3592 15.4787 55.3788 15.2732 55.3556 15.073C55.0349 12.3181 54.6197 9.57034 54.4166 6.80836C54.2865 5.03141 53.3475 4.03398 51.8863 3.27218C49.9619 2.26767 47.8931 1.7911 45.7691 1.48815C41.7671 0.915909 37.7721 1.0665 33.7914 1.67417C28.4119 2.49621 23.2214 3.92946 18.5279 6.75876C17.3287 7.48158 16.2311 8.43649 15.2653 9.45341C14.7967 9.94592 14.4848 10.8441 14.5383 11.5244C14.8216 15.0801 15.2439 18.6252 15.6359 22.3438ZM103.397 106.078C105.2 105.937 106.816 105.804 108.432 105.687C109.32 105.623 110.212 105.609 111.098 105.529C115.325 105.141 119.211 103.809 122.664 101.327C123.259 100.9 123.82 100.386 124.264 99.8102C124.483 99.525 124.578 98.8801 124.401 98.6303C124.223 98.3788 123.608 98.2831 123.232 98.3575C122.696 98.4638 122.21 98.8075 121.688 99.013C120.12 99.626 118.55 100.237 116.967 100.809C116.681 100.914 116.322 100.824 115.998 100.824C115.975 100.751 115.952 100.678 115.929 100.606C116.272 100.338 116.859 100.113 116.916 99.7943C117.119 98.6658 117.928 97.6471 117.566 96.3999C117.52 96.2404 117.823 95.8294 118.028 95.7745C119.824 95.2979 121.647 94.9276 123.434 94.4227C124.578 94.1003 125.67 93.6024 126.787 93.1826C126.775 93.1117 126.762 93.0408 126.75 92.97C126.417 92.97 126.073 92.9186 125.75 92.9806C124.877 93.1454 124.006 93.3332 123.145 93.5546C119.986 94.3696 116.796 94.7806 113.536 94.327C113.22 94.2828 112.919 94.1481 112.372 93.9851C112.926 93.5989 113.281 93.3969 113.58 93.1347C114.599 92.2436 115.654 91.3826 116.583 90.4029C117.035 89.9245 117.349 89.145 116.77 88.5497C116.157 87.9208 115.578 88.5338 115.027 88.8367C113.215 89.8342 111.44 90.9113 109.582 91.8131C107.662 92.7432 106.102 94.017 104.828 95.7107C104.387 96.2953 103.696 96.6869 103.133 97.1847C102.933 97.3619 102.657 97.5691 102.62 97.7959C102.156 100.678 102.515 103.481 103.4 106.08L103.397 106.078ZM6.34881 147.775C6.0548 150.619 5.9764 153.326 6.3399 156.031C6.66955 158.49 7.39477 160.825 8.85056 162.863C9.53658 163.821 10.3954 164.659 11.1759 165.55C10.848 164.445 10.3135 163.504 9.88048 162.519C9.4653 161.573 8.95569 160.623 9.20515 159.507C9.53836 159.807 9.74506 160.145 9.88048 160.51C10.6431 162.574 11.6445 164.512 13.0576 166.211C13.7133 167.001 14.5133 167.634 15.6199 167.891C14.8448 166.512 14.0714 165.267 13.43 163.958C12.7814 162.634 12.3876 161.217 12.3519 159.704C12.6762 159.918 12.8758 160.179 12.9898 160.473C13.4086 161.545 13.6794 162.693 14.2282 163.69C14.9909 165.077 15.921 166.378 16.8583 167.658C17.04 167.907 17.6869 168.082 17.9363 167.949C18.2428 167.788 18.5386 167.258 18.519 166.904C18.4851 166.277 18.2731 165.635 18.0254 165.045C16.8084 162.149 16.1812 159.139 16.1883 156.001C16.1883 155.7 16.3148 155.401 16.3825 155.099C16.4787 155.099 16.575 155.099 16.6712 155.099C16.7977 155.473 16.9616 155.842 17.0454 156.224C17.2378 157.087 17.3234 157.98 17.5817 158.822C17.8027 159.541 18.1216 160.264 18.56 160.87C18.7827 161.178 19.4367 161.447 19.7627 161.339C20.0763 161.235 20.2403 160.63 20.4238 160.226C20.4897 160.083 20.4327 159.877 20.4078 159.702C20.1654 157.92 19.9356 156.134 19.6665 154.355C19.2585 151.648 18.0878 149.253 16.5928 146.968C13.2464 147.981 9.8787 148.291 6.34703 147.772L6.34881 147.775ZM24.1925 60.7882C23.6722 61.6404 23.2071 62.4624 22.6797 63.242C22.3554 63.7221 22.4017 64.0888 22.6529 64.6043C23.8486 67.074 24.964 69.5791 26.1507 72.0541C26.3022 72.3712 26.6515 72.6972 26.9829 72.8088C28.1055 73.1879 29.2583 73.4802 30.4023 73.7938C31.0954 73.9851 31.2861 74.32 30.8086 74.9312C30.3346 75.5371 29.8945 76.1696 29.4294 76.7808C28.6543 77.7977 28.681 77.7694 29.4775 78.7438C34.0783 84.3829 38.6666 90.0326 43.2532 95.6823C43.8376 96.4016 44.3864 97.151 45.0047 97.9536C45.4502 96.6869 45.5767 95.5902 45.0404 94.4121C43.3547 90.7058 41.8562 86.911 40.0689 83.2561C36.0205 74.9719 30.9778 67.3539 24.1925 60.7882ZM45.6943 100.586C46.1059 99.7961 46.4623 99.1246 46.808 98.4496C50.2666 91.6838 52.9109 84.6291 54.4273 77.1741C54.5342 76.6461 54.4469 76.283 54.0317 75.9339C53.2833 75.3068 52.5795 74.6265 51.8364 73.9922C51.3856 73.6078 51.3963 73.2853 51.8489 72.9186C52.3942 72.4793 52.918 72.0151 53.5363 71.4871C52.2338 69.5348 50.9758 67.648 49.7178 65.7595C49.6465 65.8002 49.5734 65.8392 49.5022 65.8799C49.5271 66.0217 49.577 66.1616 49.5734 66.3033C49.5325 68.1529 49.7231 70.0521 49.3489 71.8344C49.1048 72.9983 49.0335 74.1216 48.9516 75.2802C48.6576 79.4861 48.4847 83.7096 47.9466 87.8871C47.4049 92.0895 46.4801 96.2439 45.6943 100.586ZM17.1505 138.411C12.5568 139.957 8.00595 140.156 3.29824 139.187C3.53167 141.21 3.80608 143.132 3.95041 145.063C4.01634 145.951 4.4333 146.367 5.21732 146.452C7.0081 146.645 8.80779 146.922 10.6004 146.904C12.7315 146.883 14.8679 146.596 16.844 145.697C17.1469 145.559 17.5372 145.139 17.5265 144.861C17.4534 142.748 17.2913 140.638 17.1505 138.409V138.411ZM102.009 95.5991C100.476 95.7975 98.9865 96.026 97.488 96.166C96.8358 96.2262 96.4866 96.5168 96.4082 97.1067C96.1783 98.8234 95.8095 100.545 95.8112 102.266C95.8112 104.858 96.4082 107.366 97.7962 109.614C97.978 109.909 98.4395 110.286 98.6979 110.238C100.38 109.923 102.044 109.501 103.757 109.104C101.77 106.101 100.58 100.522 102.009 95.5991ZM42.56 72.1232C42.7685 73.4359 43.0108 74.7611 43.1854 76.0934C43.818 80.8839 44.4149 85.6779 45.0564 90.4667C45.2007 91.5491 45.4698 92.6157 45.6801 93.691C45.7781 93.6804 45.8778 93.668 45.9758 93.6574C47.2428 86.9482 48.1836 80.2071 47.8842 73.6326C46.7367 72.9983 45.7977 72.4669 44.8444 71.9602C44.6092 71.8344 44.3169 71.6944 44.0746 71.7263C43.5881 71.7901 43.1159 71.9708 42.56 72.1232ZM55.7654 19.8919C55.9632 18.8555 55.5374 18.2779 54.6072 17.998C53.5577 17.6826 52.5367 17.2575 51.4711 17.0147C46.7349 15.9358 41.9702 16.1272 37.2197 16.8978C30.0014 18.0706 23.159 20.2763 17.0151 24.3582C16.2418 24.8719 15.88 25.4158 16.2578 26.3087C17.7563 25.4265 19.2086 24.4521 20.7606 23.6761C27.1664 20.4783 33.9518 18.5366 41.09 17.8882C46.1095 17.4311 51.0506 17.711 55.7637 19.8919H55.7654ZM34.8338 71.2834C34.7233 71.3578 34.6146 71.434 34.5042 71.5084C38.255 77.2432 41.4499 83.272 44.333 89.5047C43.6505 83.7752 42.8077 78.0971 41.9488 72.419C41.9096 72.1621 41.7136 71.9283 41.6441 71.7883C40.5269 72.4615 39.5344 73.1613 38.4546 73.6804C37.4389 74.1676 36.5818 73.7672 36.1043 72.9346C35.7622 72.3393 35.2632 71.8308 34.8356 71.2834H34.8338ZM35.4058 70.9929L35.6071 70.8245C35.5715 70.4242 35.5305 70.0255 35.502 69.6234C35.4379 68.7128 35.322 67.8004 35.3292 66.888C35.3434 65.2953 36.2201 64.5955 37.7632 65.0437C38.7753 65.336 39.7108 65.8835 40.689 66.2963C40.8637 66.3707 41.0828 66.3459 41.2806 66.3654C41.1612 66.2024 41.065 66.0128 40.9153 65.8852C40.7853 65.7754 40.5946 65.7382 40.4307 65.6673C36.8954 64.1402 33.3424 62.6502 29.8339 61.0664C28.4797 60.4552 27.2199 59.6349 25.6447 58.758C25.7552 59.681 25.5841 60.5987 25.9672 61.0717C28.1571 63.7841 30.4361 66.4274 32.7793 69.0104C33.5028 69.8076 34.5202 70.3374 35.404 70.9893L35.4058 70.9929ZM125.574 99.0254C126.155 98.4798 126.759 97.9996 127.236 97.4185C127.427 97.1865 127.486 96.6426 127.34 96.3963C127.188 96.1412 126.702 95.9286 126.386 95.9569C125.809 96.0083 125.242 96.2316 124.683 96.414C122.714 97.0554 120.768 97.7693 118.778 98.3292C117.928 98.5683 117.659 99.0077 117.614 99.8439C118.001 99.7323 118.325 99.6791 118.616 99.5498C119.911 98.9705 121.185 98.3416 122.489 97.7835C124.075 97.1067 124.843 97.4132 125.574 99.0254ZM128.147 96.0154C128.699 95.5034 129.232 95.0676 128.852 94.3625C128.489 93.6875 127.808 93.7902 127.19 93.9196C126.816 93.9975 126.461 94.1605 126.094 94.2739C123.778 94.9879 121.477 95.7691 119.131 96.3715C118.268 96.593 118.118 96.9579 118.209 97.7693C118.637 97.6577 119.013 97.5851 119.369 97.4593C121.267 96.7878 123.165 96.1182 125.052 95.4201C126.19 94.9985 127.251 94.8816 128.147 96.0154ZM45.0065 250.66C44.978 250.597 44.9477 250.537 44.9192 250.475C44.4933 250.644 44.0728 250.835 43.638 250.975C40.2845 252.05 36.858 252.034 33.4208 251.549C31.2326 251.241 29.1015 250.667 27.268 249.382C26.2078 248.64 25.3079 247.671 24.2637 246.902C22.9879 245.965 21.6355 245.134 20.3151 244.255C20.2652 244.326 20.2153 244.397 20.1637 244.468C20.4363 244.682 20.7036 244.902 20.9798 245.111C22.5763 246.324 24.1604 247.554 25.7748 248.739C26.6301 249.368 27.4836 250.052 28.4405 250.484C33.3495 252.706 38.4189 252.789 43.5561 251.379C44.0675 251.239 44.5254 250.9 45.0065 250.656V250.66ZM44.3704 66.3246C46.1576 64.8754 46.1808 64.7868 45.4057 62.9036C44.7891 63.8177 44.1209 64.8099 43.4509 65.8055C43.7289 65.9632 44.0336 66.135 44.3704 66.3246ZM103.776 107.209C104.109 107.708 104.341 108.055 104.696 108.583C104.904 107.921 105.043 107.476 105.23 106.876C104.68 107.001 104.302 107.088 103.776 107.209Z" fill="#b50000"/>
<path d="M17.3126 169.168C19.164 168.842 19.9426 167.689 19.4473 165.959C19.0731 164.659 18.5581 163.399 18.1091 162.133C18.1911 162.08 18.2534 162.019 18.2713 162.032C19.0285 162.517 19.809 162.684 20.6002 162.133C21.4733 161.525 21.5588 160.602 21.4608 159.67C20.985 155.135 20.4968 150.596 17.5781 146.649C19.2477 145.986 18.5047 144.579 18.7114 143.415C20.4986 143.676 22.2466 143.959 24.0018 144.183C30.2597 144.976 36.539 145.199 42.8468 144.96C46.9915 144.804 51.1254 144.633 55.197 143.789C56.6741 143.483 58.1335 143.093 59.6267 142.735C59.6267 143.734 59.7105 144.753 59.6142 145.754C58.7197 154.949 57.7967 164.142 56.8791 173.335C55.662 185.522 54.3524 197.702 53.2547 209.899C52.6614 216.483 52.4173 223.096 52.0466 229.699C52.0128 230.293 51.8328 230.668 51.2804 230.824C49.5484 231.311 47.8378 231.939 46.072 232.217C43.3529 232.644 40.6266 232.399 37.9431 231.742C37.291 231.583 37.0183 231.303 37.0522 230.596C37.3266 224.668 37.5279 218.736 37.8309 212.81C38.0999 207.534 38.4046 202.257 38.8127 196.99C39.3187 190.429 39.8764 183.871 40.5411 177.324C41.1915 170.925 41.9915 164.542 42.7542 158.155C42.9894 156.194 43.2976 154.24 43.6291 152.293C43.6879 151.946 43.9694 151.574 44.2545 151.338C44.8229 150.867 45.4804 150.505 46.0649 150.052C46.2912 149.877 46.4195 149.574 46.5905 149.329C46.4979 149.233 46.4034 149.14 46.3108 149.044C45.1597 149.728 43.989 150.387 42.8718 151.122C42.6615 151.26 42.6045 151.703 42.5635 152.015C41.7153 158.451 40.8048 164.881 40.0635 171.329C39.3365 177.663 38.7218 184.011 38.173 190.362C37.7061 195.772 37.3106 201.194 37.0433 206.617C36.6031 215.581 36.2788 224.551 35.9528 233.519C35.9225 234.334 35.4877 234.593 34.8979 234.826C32.079 235.948 29.1371 236.187 26.1436 235.98C24.114 235.84 22.1504 235.422 20.3008 234.532C19.7858 234.286 19.5756 233.974 19.5506 233.384C19.1087 223.178 18.5599 212.977 18.2018 202.769C17.8151 191.763 17.6031 180.751 17.3144 169.742C17.309 169.568 17.3144 169.393 17.3144 169.17L17.3126 169.168Z" fill="#ffffff"/>
<path d="M21.5661 64.7515C23.2482 67.2884 24.3547 69.829 25.2332 72.4687C25.4577 73.1437 25.8177 73.4838 26.5001 73.6451C27.6156 73.9108 28.7114 74.2598 29.9534 74.6124C29.3565 75.399 28.8237 76.0952 28.2962 76.795C27.5568 77.7818 27.5817 77.9076 28.3533 78.8501C33.0734 84.6221 37.7865 90.4012 42.496 96.182C42.9806 96.7773 43.3548 97.4788 43.9001 98.0103C44.775 98.8643 44.7607 99.7625 44.5202 100.879C44.2048 102.337 43.9981 103.85 43.9927 105.34C43.9535 117.713 43.9696 130.086 43.9696 142.459C43.9696 143.734 43.9696 143.749 42.7205 143.811C34.8892 144.204 27.1113 143.75 19.3887 142.363C18.7009 142.239 18.4817 141.988 18.4514 141.29C18.0968 132.825 17.7173 124.362 17.3199 115.899C17.1453 112.169 17.9828 108.562 18.569 104.925C19.2515 100.698 20.007 96.4832 20.7055 92.2596C20.791 91.7476 20.7162 91.209 20.7162 90.6829C20.5914 90.6616 20.4649 90.6386 20.3402 90.6173C20.1994 90.9043 19.982 91.1789 19.9286 91.4819C18.6955 98.4869 17.3965 105.483 16.3149 112.513C15.9817 114.676 16.1724 116.933 16.2561 119.142C16.4753 124.895 16.7462 130.646 17.0526 136.395C17.1007 137.287 16.8816 137.707 15.9978 137.952C12.0064 139.056 7.99182 139.265 3.92202 138.467C3.41775 138.368 3.1772 138.166 3.13265 137.608C2.49474 129.545 1.74457 121.49 1.21179 113.422C0.892839 108.601 1.57708 103.804 2.3023 99.0467C3.18789 93.2411 4.2481 87.4603 5.32257 81.6847C5.61658 80.0991 6.17074 78.5525 6.71778 77.0253C7.58555 74.6017 9.01283 72.5165 11.201 71.1116C14.5883 68.9378 18.0576 66.8934 21.5643 64.7515H21.5661ZM11.9903 72.0878C11.9779 72.1976 11.9672 72.3093 11.9547 72.4191C12.0171 72.4758 12.0705 72.5591 12.1454 72.5874C14.9429 73.6557 16.5395 75.8702 17.8171 78.4072C19.3441 81.442 19.9892 84.6877 20.2404 88.036C20.2636 88.3496 20.3562 88.6561 20.4168 88.9679C20.513 88.9679 20.6075 88.9644 20.7037 88.9626C20.7785 88.6118 20.9282 88.2593 20.9157 87.912C20.7607 83.1782 19.6096 78.735 16.5822 74.9862C15.7038 73.9002 14.3834 73.1526 13.2127 72.3234C12.9062 72.1055 12.4037 72.1604 11.9903 72.0896V72.0878Z" fill="#b50000"/>
<path d="M52.5385 73.4412C52.7541 73.2977 52.8592 73.241 52.9483 73.1648C54.8602 71.5172 54.789 72.0611 53.4793 69.7881C52.7897 68.5904 51.995 67.4495 51.2484 66.2838L51.3606 66.0605C54.1404 67.4708 56.9272 68.8686 59.6873 70.3142C59.9671 70.4613 60.1773 70.8865 60.2682 71.2231C60.8616 73.4128 61.4122 75.615 61.9806 77.8118C62.0251 77.9801 62.0893 78.1449 62.1606 78.3061C62.1766 78.3397 62.2603 78.345 62.4599 78.4106C62.6648 76.0898 61.7971 74.0028 61.4425 71.751C61.8345 72.2223 62.296 72.6546 62.6096 73.1719C64.5198 76.3325 66.4335 79.4913 68.2742 82.6909C71.061 87.5327 73.7891 92.4065 76.5403 97.2661C76.5812 97.3387 76.6026 97.422 76.6436 97.5318C75.2787 98.4407 73.9619 99.3903 73.4541 101.006C73.5343 101.084 73.6162 101.162 73.6964 101.242C73.8942 101.072 74.108 100.917 74.288 100.73C74.7192 100.283 75.1094 99.796 75.5585 99.369C76.5634 98.4141 77.7502 98.0421 79.1685 97.934C84.5551 97.5212 89.931 96.9685 95.3123 96.4689C95.4245 96.4582 95.5386 96.4689 95.7506 96.4689C94.8989 98.8464 94.7403 101.24 94.9951 103.662C95.2517 106.092 95.9609 108.385 97.3543 110.603C95.1875 111.03 93.1384 111.475 91.075 111.834C85.8399 112.747 80.5994 113.625 75.2609 113.709C72.2531 113.755 69.7068 112.745 67.7592 110.475C65.9524 108.367 64.2525 106.165 62.5401 103.977C62.3316 103.711 62.2532 103.267 62.2728 102.914C62.5383 98.2281 62.9 93.5457 63.0943 88.8561C63.203 86.2377 63.0675 83.6068 62.998 80.983C62.9856 80.4976 62.7539 80.0192 62.6239 79.5374C62.5258 79.5515 62.4296 79.5639 62.3316 79.5781C62.2889 79.819 62.2015 80.0635 62.2069 80.3027C62.4154 87.8162 61.5886 95.2836 61.1164 102.763C60.5105 112.359 60.8758 121.947 61.1805 131.538C61.2643 134.194 61.3035 136.853 61.4799 139.504C61.5476 140.513 61.1698 141.011 60.286 141.227C57.4671 141.915 54.6607 142.675 51.8115 143.219C49.9244 143.578 47.9751 143.607 46.056 143.805C45.2328 143.89 44.9673 143.557 44.9673 142.751C44.9922 130.025 44.994 117.3 44.9994 104.576C44.9994 103.311 45.2934 102.188 46.0239 101.089C49.6251 95.6663 51.8899 89.6445 53.7573 83.4668C54.3969 81.3533 54.8406 79.1813 55.3912 77.0394C55.5587 76.3856 55.3681 75.9002 54.862 75.475C54.1154 74.8496 53.392 74.1959 52.5331 73.4447L52.5385 73.4412ZM56.9183 91.891C56.9183 91.852 56.9183 91.813 56.9183 91.7758C57.8663 91.7758 58.8142 91.79 59.7604 91.7705C60.5836 91.7545 61.0077 91.3223 61.0059 90.4896C61.0059 89.664 61.0309 88.8402 61.0184 88.0146C61.0023 86.9587 60.6192 86.5654 59.5555 86.5885C57.8377 86.6239 56.12 86.6948 54.4023 86.7692C53.5042 86.8081 53.13 87.1837 53.1158 88.1103C53.1015 89.0227 53.155 89.9368 53.1781 90.8492C53.1995 91.6589 53.6468 92.0238 54.4308 92.0026C55.2594 91.9795 56.0897 91.9299 56.9183 91.8927V91.891ZM46.1059 106.502C46.1006 107.74 46.8703 108.672 47.9252 108.704C48.964 108.736 49.7605 107.804 49.7748 106.542C49.789 105.293 49.0014 104.333 47.9662 104.338C46.9131 104.342 46.1112 105.276 46.1059 106.503V106.502ZM49.9013 121.374C49.9066 120.168 49.16 119.261 48.1301 119.229C47.0432 119.194 46.1451 120.159 46.1291 121.376C46.1148 122.577 46.938 123.527 48.0036 123.536C49.021 123.545 49.8942 122.551 49.8995 121.376L49.9013 121.374Z" fill="#b50000"/>
<path d="M56.2358 34.701C56.1895 33.3209 55.9168 31.9496 55.8278 30.5695C55.7636 29.565 55.2255 29.0796 54.3435 28.7235C51.6243 27.6233 48.7626 27.1538 45.8938 26.6684C41.8917 25.9898 37.8897 25.3149 33.9107 24.5229C32.4817 24.2395 31.1185 23.6212 29.6628 23.1357C29.677 23.3253 29.6752 23.4387 29.6966 23.5503C30.3327 26.9093 29.6271 30.0061 27.774 32.8443C26.9151 34.1588 26.6407 35.6116 26.4964 37.1192C26.4269 37.8545 26.3538 38.5879 26.3093 39.3249C26.2754 39.8706 26.1364 40.3082 25.5235 40.4517C24.9105 40.5952 24.5969 40.2444 24.3047 39.7944C23.8218 39.0539 23.387 38.2602 22.7954 37.6118C21.2951 35.9641 19.0713 36.2299 17.9541 38.1521C17.7064 38.5791 17.5211 39.0663 17.4249 39.5482C16.8778 42.2534 18.2837 45.6656 20.675 47.0829C21.5249 47.5861 22.6653 48.0219 23.5848 47.8872C24.7697 47.7154 25.0744 47.687 25.4112 49.037C26.0313 51.5138 26.6514 53.9746 26.6068 56.5204C26.5837 57.8403 27.0042 58.6481 28.1963 59.1141C28.223 59.1247 28.2479 59.1442 28.2747 59.1566C32.8078 61.2099 37.3391 63.2668 41.8775 65.3059C42.0378 65.3786 42.3479 65.3378 42.4797 65.2262C43.7859 64.1154 44.577 62.7831 44.1797 60.953C44.0745 60.9406 43.9605 60.9141 43.8464 60.9176C39.6038 61.0487 35.7639 59.7625 32.2482 57.5107C31.09 56.7684 30.1029 55.7568 29.064 54.8391C28.9375 54.7275 28.9696 54.4405 28.9286 54.2332C29.1353 54.2687 29.3456 54.2864 29.5434 54.3484C29.6467 54.382 29.7269 54.4937 29.816 54.5716C32.5815 56.9651 35.7906 58.5223 39.333 59.3603C43.1408 60.2621 46.8346 60.1398 50.0937 57.6153C54.176 54.4529 56.1592 50.1585 56.4104 45.1394C56.5833 41.6723 56.3534 38.1822 56.2358 34.7045V34.701Z" fill="#ffffff"/>
<path d="M15.6358 22.3439C15.2438 18.6253 14.8215 15.0802 14.5382 11.5245C14.4847 10.8442 14.7965 9.94602 15.2652 9.45351C16.231 8.43836 17.3286 7.48168 18.5278 6.75886C23.2212 3.93133 28.4118 2.49631 33.7913 1.67427C37.772 1.0666 41.767 0.916009 45.769 1.48825C47.893 1.7912 49.9618 2.26776 51.8862 3.27228C53.3473 4.03408 54.2864 5.03151 54.4165 6.80846C54.6196 9.57221 55.0366 12.3182 55.3555 15.0731C55.3787 15.2733 55.3591 15.4788 55.3591 15.5975C46.5958 12.2864 37.9039 13.5903 29.2475 15.9997C24.8285 17.2292 20.6108 18.9654 16.7798 21.5325C16.4412 21.7593 16.1151 22.0038 15.6358 22.3439Z" fill="#b50000"/>
<path d="M103.397 106.078C102.511 103.479 102.153 100.677 102.616 97.7942C102.652 97.5674 102.93 97.3602 103.129 97.183C103.691 96.6852 104.384 96.2936 104.824 95.709C106.1 94.0153 107.661 92.7433 109.578 91.8114C111.438 90.9096 113.211 89.8325 115.023 88.8351C115.574 88.5321 116.153 87.9191 116.766 88.5481C117.347 89.1433 117.033 89.9228 116.579 90.4012C115.651 91.3809 114.596 92.2401 113.576 93.133C113.277 93.3953 112.923 93.5972 112.368 93.9834C112.914 94.1464 113.217 94.2811 113.532 94.3254C116.791 94.7789 119.982 94.3679 123.142 93.5529C124.002 93.3315 124.874 93.1437 125.747 92.9789C126.069 92.9187 126.413 92.9683 126.746 92.9683C126.759 93.0392 126.771 93.11 126.784 93.1809C125.668 93.6008 124.574 94.0968 123.43 94.421C121.643 94.9259 119.82 95.298 118.024 95.7728C117.819 95.8277 117.516 96.2387 117.563 96.3982C117.924 97.6472 117.115 98.6641 116.912 99.7926C116.855 100.112 116.269 100.337 115.925 100.604C115.948 100.677 115.971 100.749 115.994 100.822C116.319 100.822 116.677 100.911 116.964 100.808C118.548 100.236 120.116 99.6243 121.684 99.0113C122.206 98.8076 122.693 98.4621 123.229 98.3558C123.605 98.2814 124.22 98.3771 124.398 98.6287C124.576 98.8785 124.482 99.5233 124.261 99.8086C123.817 100.384 123.256 100.898 122.66 101.325C119.207 103.807 115.321 105.141 111.094 105.527C110.209 105.609 109.316 105.621 108.429 105.685C106.813 105.802 105.196 105.935 103.393 106.077L103.397 106.078ZM113.493 100.046C111.991 98.4515 107.431 98.4355 107.139 100.115C109.293 99.1141 111.387 99.5322 113.493 100.046Z" fill="#ffffff"/>
<path d="M6.34871 147.776C9.87859 148.295 13.2463 147.985 16.5945 146.971C18.0895 149.258 19.2584 151.654 19.6682 154.359C19.9373 156.138 20.1671 157.923 20.4095 159.706C20.4326 159.881 20.4896 160.087 20.4255 160.23C20.242 160.634 20.078 161.238 19.7644 161.343C19.4383 161.451 18.7862 161.183 18.5617 160.873C18.1233 160.267 17.8044 159.544 17.5834 158.825C17.325 157.984 17.2395 157.091 17.0471 156.228C16.9615 155.844 16.7994 155.477 16.6729 155.103C16.5766 155.103 16.4804 155.103 16.3842 155.103C16.3165 155.404 16.1918 155.704 16.19 156.005C16.1829 159.142 16.8101 162.151 18.0271 165.049C18.2748 165.639 18.4868 166.28 18.5207 166.907C18.5403 167.262 18.2445 167.79 17.938 167.953C17.6885 168.086 17.0417 167.91 16.86 167.662C15.9227 166.381 14.9926 165.081 14.2299 163.694C13.6811 162.694 13.4103 161.548 12.9915 160.476C12.8775 160.182 12.6779 159.92 12.3536 159.707C12.3893 161.22 12.7848 162.636 13.4316 163.961C14.0731 165.27 14.8465 166.516 15.6216 167.894C14.515 167.637 13.7167 167.005 13.0592 166.215C11.6462 164.516 10.6466 162.578 9.88216 160.514C9.74674 160.149 9.54004 159.81 9.20683 159.511C8.95737 160.625 9.46698 161.577 9.88216 162.523C10.3134 163.508 10.8497 164.448 11.1776 165.554C10.3971 164.661 9.53826 163.825 8.85224 162.866C7.39645 160.829 6.67123 158.492 6.34158 156.035C5.97808 153.33 6.05648 150.623 6.35049 147.779L6.34871 147.776Z" fill="#ffffff"/>
<path d="M24.1926 60.7883C30.9762 67.354 36.0206 74.972 40.0691 83.2562C41.8563 86.9128 43.3548 90.7059 45.0405 94.4122C45.5768 95.5903 45.4503 96.6869 45.0048 97.9537C44.3865 97.1511 43.8377 96.4035 43.2533 95.6824C38.6667 90.0309 34.0784 84.3812 29.4776 78.7438C28.6811 77.7694 28.6544 77.796 29.4295 76.7809C29.8964 76.1697 30.3347 75.5372 30.8087 74.9313C31.2862 74.3201 31.0956 73.9852 30.4024 73.7939C29.2584 73.4785 28.1056 73.188 26.983 72.8089C26.6533 72.6972 26.3041 72.3713 26.1509 72.0541C24.9659 69.5809 23.8487 67.0741 22.653 64.6044C22.4036 64.0871 22.3555 63.7222 22.6798 63.242C23.2072 62.4625 23.6723 61.6423 24.1926 60.7883Z" fill="#202124"/>
<path d="M45.6926 100.586C46.4802 96.2422 47.4032 92.0895 47.9449 87.8872C48.483 83.7115 48.6577 79.4861 48.9499 75.2803C49.0301 74.1216 49.1031 72.9984 49.3472 71.8345C49.7214 70.0522 49.529 68.153 49.5718 66.3034C49.5753 66.1635 49.5254 66.0217 49.5005 65.88C49.5718 65.8392 49.6448 65.8003 49.7161 65.7595C50.9741 67.6463 52.2339 69.5331 53.5346 71.4872C52.9163 72.0134 52.3907 72.4776 51.8472 72.9187C51.3928 73.2854 51.3839 73.6061 51.8347 73.9923C52.5778 74.6265 53.2816 75.3069 54.03 75.934C54.4452 76.283 54.5325 76.6462 54.4256 77.1742C52.9092 84.6292 50.2649 91.6838 46.8063 98.4497C46.4606 99.1247 46.106 99.7961 45.6926 100.586Z" fill="#202124"/>
<path d="M17.1506 138.411C17.2914 140.639 17.4535 142.749 17.5266 144.863C17.5355 145.141 17.147 145.561 16.8441 145.699C14.868 146.596 12.7316 146.884 10.6004 146.906C8.80789 146.923 7.0082 146.647 5.21742 146.454C4.43339 146.369 4.01643 145.951 3.9505 145.065C3.80796 143.132 3.53176 141.21 3.29834 139.188C8.00604 140.157 12.5569 139.959 17.1506 138.412V138.411Z" fill="#ffffff"/>
<path d="M102.007 95.5991C100.578 100.522 101.768 106.101 103.755 109.104C102.043 109.501 100.38 109.923 98.6962 110.238C98.4378 110.286 97.9763 109.909 97.7946 109.615C96.4065 107.366 95.8114 104.858 95.8096 102.266C95.8096 100.546 96.1748 98.8235 96.4065 97.1068C96.4849 96.5168 96.8341 96.2263 97.4863 96.166C98.9849 96.0261 100.475 95.7975 102.007 95.5991Z" fill="#ffffff"/>
<path d="M42.5581 72.1231C43.114 71.969 43.5862 71.7901 44.0727 71.7263C44.3168 71.6944 44.6073 71.8343 44.8425 71.9601C45.7958 72.4668 46.7348 72.9983 47.8823 73.6326C48.1799 80.2071 47.2409 86.9482 45.974 93.6573C45.876 93.668 45.7762 93.6804 45.6782 93.691C45.4661 92.6174 45.1988 91.5509 45.0545 90.4666C44.413 85.6779 43.8161 80.8839 43.1835 76.0934C43.0071 74.7593 42.7666 73.4359 42.5581 72.1231ZM44.6233 76.205C44.3328 76.6408 44.0299 76.8959 44.0513 77.1209C44.0745 77.3618 44.4023 77.5744 44.5966 77.7977C44.8015 77.5833 45.1418 77.3849 45.1703 77.1493C45.1988 76.9225 44.903 76.6585 44.6233 76.205ZM45.6443 84.0037C45.377 84.4555 45.0901 84.723 45.1187 84.9533C45.1489 85.1925 45.4822 85.3944 45.6835 85.6141C45.8724 85.3891 46.1949 85.173 46.2092 84.9391C46.2234 84.7035 45.9294 84.4502 45.6425 84.0037H45.6443Z" fill="#ffffff"/>
<path d="M55.7655 19.8936C51.0524 17.7127 46.1095 17.4346 41.0918 17.8899C33.9536 18.5383 27.1664 20.48 20.7624 23.6778C19.2104 24.4538 17.7582 25.4282 16.2596 26.3105C15.8818 25.4176 16.2436 24.8737 17.0169 24.3599C23.1608 20.2781 30.0014 18.0724 37.2215 16.8996C41.972 16.1289 46.7367 15.9376 51.4729 17.0165C52.5385 17.2592 53.5595 17.6844 54.609 17.9998C55.5392 18.2797 55.965 18.8555 55.7673 19.8936H55.7655Z" fill="#202124"/>
<path d="M34.8339 71.2852C35.2615 71.8326 35.7604 72.3411 36.1026 72.9363C36.5801 73.769 37.439 74.1676 38.4529 73.6822C39.5327 73.1631 40.5252 72.4633 41.6424 71.7901C41.7119 71.93 41.9079 72.1639 41.9471 72.4208C42.806 78.0989 43.6488 83.7769 44.3312 89.5064C41.45 83.2756 38.2533 77.2467 34.5024 71.5102C34.6129 71.4357 34.7216 71.3596 34.8321 71.2852H34.8339Z" fill="#202124"/>
<path d="M35.4058 70.9928C34.522 70.3409 33.5028 69.8094 32.7811 69.0139C30.4379 66.4309 28.1589 63.7876 25.969 61.0752C25.5859 60.6004 25.757 59.6845 25.6465 58.7615C27.2217 59.6384 28.4814 60.4587 29.8357 61.0699C33.346 62.652 36.8972 64.1437 40.4325 65.6708C40.5964 65.7417 40.787 65.7789 40.9171 65.8888C41.0668 66.0163 41.163 66.2059 41.2824 66.3689C41.0846 66.3476 40.8672 66.3742 40.6908 66.2998C39.7126 65.887 38.7771 65.3396 37.765 65.0472C36.2219 64.6008 35.3452 65.2988 35.331 66.8915C35.322 67.8021 35.4379 68.7145 35.5038 69.6269C35.5323 70.0273 35.5733 70.4277 35.6089 70.8281L35.4076 70.9964L35.4058 70.9928Z" fill="#202124"/>
<path d="M43.7254 245.222C43.5026 245.18 43.2478 245.192 43.0607 245.088C40.8459 243.863 38.9517 242.28 37.626 240.106C36.8171 238.782 36.0829 237.413 35.3149 236.065C35.3987 236.013 35.4842 235.964 35.568 235.912C35.6998 236.127 35.8352 236.338 35.9635 236.554C36.7155 237.824 37.4425 239.108 38.2319 240.356C38.3887 240.605 38.7593 240.823 39.0604 240.866C42.8487 241.406 46.571 242.106 50.1936 243.458C54.9458 245.229 59.8923 245.314 64.8406 244.225C65.8295 244.007 66.7757 243.589 67.8323 243.449C67.1071 243.773 66.4104 244.197 65.6531 244.402C60.4714 245.807 55.2737 245.764 50.2542 243.872C46.7189 242.54 43.0892 241.823 39.3919 241.28C39.2903 241.266 39.1816 241.293 38.9999 241.307C40.2133 243.121 42.1538 243.948 43.704 245.235C43.7076 245.231 43.7272 245.219 43.7272 245.219L43.7254 245.222Z" fill="#202124"/>
<path d="M125.574 99.0254C124.843 97.4132 124.075 97.1049 122.489 97.7834C121.185 98.3415 119.911 98.9704 118.616 99.5498C118.325 99.6791 118.001 99.7322 117.614 99.8439C117.657 99.0076 117.928 98.5683 118.778 98.3291C120.768 97.7693 122.716 97.0553 124.683 96.414C125.244 96.2315 125.809 96.0083 126.386 95.9569C126.704 95.9285 127.188 96.1411 127.34 96.3963C127.486 96.6425 127.427 97.1864 127.236 97.4185C126.759 97.9996 126.155 98.4797 125.574 99.0254Z" fill="#ffffff"/>
<path d="M128.147 96.0155C127.25 94.8817 126.19 94.9986 125.052 95.4203C123.165 96.1201 121.267 96.7897 119.369 97.4594C119.013 97.5852 118.637 97.6561 118.209 97.7694C118.118 96.958 118.268 96.5931 119.13 96.3716C121.477 95.7693 123.776 94.988 126.094 94.274C126.461 94.1606 126.816 93.9976 127.19 93.9197C127.81 93.7886 128.489 93.6858 128.852 94.3626C129.232 95.0677 128.699 95.5018 128.147 96.0155Z" fill="#ffffff"/>
<path d="M45.0047 250.659C44.5218 250.906 44.0657 251.242 43.5543 251.382C38.4171 252.791 33.3495 252.709 28.4387 250.488C27.4818 250.054 26.6301 249.37 25.773 248.743C24.1568 247.556 22.5727 246.328 20.978 245.114C20.7018 244.905 20.4327 244.686 20.1619 244.471C20.2118 244.4 20.2616 244.329 20.3133 244.259C21.6337 245.136 22.9861 245.968 24.262 246.905C25.3079 247.672 26.206 248.642 27.2662 249.386C29.0997 250.668 31.2309 251.244 33.419 251.552C36.8562 252.038 40.2828 252.054 43.6362 250.978C44.0728 250.838 44.4915 250.647 44.9174 250.479C44.9459 250.541 44.9762 250.601 45.0047 250.663V250.659Z" fill="#202124"/>
<path d="M44.3687 66.3246C44.0301 66.1333 43.7272 65.9614 43.4492 65.8055C44.1192 64.8116 44.7892 63.8177 45.4039 62.9036C46.179 64.7886 46.1559 64.8754 44.3687 66.3246Z" fill="#202124"/>
<path d="M103.774 107.209C104.3 107.088 104.678 107.001 105.228 106.875C105.04 107.476 104.901 107.921 104.694 108.583C104.341 108.055 104.108 107.708 103.774 107.209Z" fill="#ffffff"/>
<path d="M11.9902 72.0877C12.4036 72.1586 12.9061 72.1037 13.2126 72.3216C14.3833 73.1507 15.7036 73.8983 16.5821 74.9843C19.6095 78.7331 20.7606 83.1764 20.9156 87.9102C20.9263 88.2574 20.7784 88.61 20.7036 88.9607C20.6074 88.9607 20.5129 88.9643 20.4167 88.9661C20.3561 88.656 20.2635 88.3478 20.2403 88.0342C19.9908 84.6858 19.344 81.4402 17.8169 78.4053C16.5393 75.8684 14.9428 73.6521 12.1453 72.5855C12.0704 72.5572 12.017 72.4739 11.9546 72.4172C11.9671 72.3074 11.9778 72.1958 11.9902 72.0859V72.0877Z" fill="#ffffff"/>
<path d="M56.9184 91.8893C56.0899 91.9265 55.2613 91.9761 54.4309 91.9992C53.6469 92.0204 53.1997 91.6555 53.1783 90.8458C53.1551 89.9334 53.0999 89.0193 53.1159 88.1069C53.1302 87.1821 53.5044 86.8065 54.4024 86.7658C56.1201 86.6913 57.8379 86.6205 59.5556 86.585C60.6212 86.5638 61.0043 86.9553 61.0185 88.0112C61.031 88.8368 61.0043 89.6606 61.006 90.4862C61.006 91.3206 60.5837 91.7511 59.7605 91.7671C58.8126 91.7866 57.8646 91.7724 56.9184 91.7724C56.9184 91.8114 56.9184 91.8503 56.9184 91.8875V91.8893ZM57.0307 91.1505C57.0307 91.0868 57.0307 91.0248 57.0307 90.961C57.8307 90.961 58.6308 90.9433 59.4309 90.9681C59.9476 90.984 60.2024 90.821 60.1846 90.2665C60.1597 89.5313 60.1686 88.7925 60.1882 88.0555C60.2006 87.6055 60.0385 87.4195 59.5645 87.4407C57.9056 87.5116 56.2449 87.5293 54.5877 87.6321C54.3704 87.6463 54.0247 88.0147 53.9997 88.2468C53.9249 88.9767 53.9926 89.7191 53.9694 90.4543C53.9516 91.0017 54.1975 91.1771 54.7232 91.1576C55.4929 91.1275 56.2627 91.1505 57.0342 91.1505H57.0307Z" fill="#202124"/>
<path d="M46.106 106.502C46.1113 105.274 46.9132 104.342 47.9663 104.337C49.0015 104.333 49.7891 105.292 49.7749 106.541C49.7606 107.802 48.9641 108.734 47.9253 108.702C46.8704 108.67 46.1006 107.738 46.106 106.5V106.502ZM48.973 106.417C48.9303 105.88 48.7325 105.3 47.9769 105.185C47.4228 105.1 46.8526 105.807 46.8775 106.537C46.8989 107.198 47.1199 107.783 47.8754 107.894C48.4456 107.979 48.9659 107.297 48.973 106.417Z" fill="#ffffff"/>
<path d="M49.903 121.375C49.8976 122.549 49.0245 123.543 48.0071 123.534C46.9415 123.525 46.1165 122.576 46.1326 121.375C46.1486 120.158 47.0467 119.194 48.1336 119.227C49.1635 119.261 49.9119 120.166 49.9048 121.373L49.903 121.375ZM49.1172 121.298C49.1118 120.597 48.6254 120.014 48.0463 120.012C47.4511 120.012 46.9237 120.634 46.9451 121.376C46.9629 122.039 47.1625 122.624 47.9536 122.695C48.5791 122.751 49.1243 122.069 49.119 121.298H49.1172Z" fill="#202124"/>
<path d="M23.5403 44.0729C22.6101 43.9488 22.3143 43.3731 22.3197 42.7565C22.3357 41.1071 21.402 40.3843 19.9391 40.0796C19.8946 40.0707 19.8643 39.9981 19.6611 39.7572C20.1191 39.6703 20.4826 39.5038 20.8087 39.5587C22.1041 39.782 23.0627 41.093 23.0788 42.3933C23.0859 42.9071 23.3514 43.4191 23.5403 44.0729Z" fill="#202124"/>
<path d="M113.493 100.046C111.385 99.5322 109.293 99.1141 107.139 100.115C107.431 98.4338 111.991 98.4515 113.493 100.046Z" fill="#202124"/>
<path d="M44.6253 76.2051C44.9051 76.6568 45.2008 76.9226 45.1723 77.1494C45.1438 77.385 44.8017 77.5834 44.5986 77.7978C44.4043 77.5728 44.0765 77.362 44.0533 77.121C44.0319 76.8978 44.3349 76.6427 44.6253 76.2051Z" fill="#202124"/>
<path d="M45.6462 84.0056C45.9331 84.4503 46.2271 84.7054 46.2128 84.941C46.1986 85.1767 45.8743 85.3928 45.6872 85.616C45.4858 85.3981 45.1508 85.1962 45.1223 84.9552C45.0938 84.7249 45.3807 84.4574 45.648 84.0056H45.6462Z" fill="#ffffff"/>
<path d="M57.0306 91.1523C56.2608 91.1523 55.4893 91.1311 54.7195 91.1594C54.1957 91.1789 53.9498 91.0035 53.9658 90.4561C53.989 89.7191 53.9213 88.9768 53.9961 88.2486C54.0193 88.0165 54.3667 87.6463 54.5841 87.6339C56.2412 87.5311 57.902 87.5134 59.5609 87.4425C60.0366 87.4231 60.197 87.6091 60.1845 88.0573C60.1649 88.7943 60.156 89.5313 60.181 90.2683C60.2006 90.821 59.944 90.9858 59.4272 90.9699C58.6272 90.9451 57.8271 90.9628 57.0271 90.9628C57.0271 91.0266 57.0271 91.0886 57.0271 91.1523H57.0306Z" fill="#ffffff"/>
<path d="M48.9729 106.417C48.9657 107.297 48.4454 107.979 47.8752 107.894C47.1197 107.783 46.8988 107.198 46.8774 106.537C46.8542 105.806 47.4244 105.099 47.9768 105.185C48.7305 105.301 48.9283 105.88 48.9729 106.417Z" fill="#ffffff"/>
<path d="M49.1174 121.297C49.1245 122.067 48.5793 122.749 47.952 122.693C47.1609 122.622 46.9613 122.035 46.9435 121.375C46.9221 120.632 47.4495 120.01 48.0447 120.01C48.6256 120.01 49.1103 120.595 49.1156 121.297H49.1174Z" fill="#ffffff"/>
</g>
<defs>
<clipPath id="clip0_28_71">
<rect width="130" height="255" fill="white"/>
</clipPath>
</defs>
</svg>
