<svg width="130" height="255" viewBox="0 0 130 255" fill="none" xmlns="http://www.w3.org/2000/svg">
<g clip-path="url(#clip0_169_5)">
<path d="M43.7295 245.222C43.8435 245.389 43.9308 245.587 44.0787 245.715C45.032 246.548 45.6183 247.556 45.7822 248.824C45.8891 249.65 46.1386 250.456 46.2669 251.28C46.4433 252.415 45.8802 253.225 44.8592 253.561C43.3482 254.057 41.8051 254.554 40.237 254.766C36.4185 255.282 32.6534 254.975 29.0344 253.526C27.1135 252.757 25.5437 251.551 24.2519 249.944C24.0505 249.694 23.5926 249.627 23.2362 249.527C22.903 249.435 22.5413 249.448 22.2098 249.35C21.9604 249.278 21.7465 249.09 21.5042 248.978C19.5887 248.101 18.6871 246.723 18.9864 244.544C19.2377 242.714 19.2127 240.846 19.4159 239.007C19.5388 237.902 19.8667 236.818 20.1072 235.698C20.011 235.631 19.9237 235.546 19.8203 235.503C18.7762 235.078 18.4911 234.298 18.4287 233.198C17.3061 212.941 16.6219 192.67 16.2281 172.389C16.2067 171.273 16.2245 170.155 16.2245 169.086C9.68328 166.957 5.92531 162.751 5.21612 155.553C4.98092 153.158 5.14841 150.722 5.18405 148.303C5.19118 147.79 5.1698 147.46 4.58356 147.357C3.37189 147.147 2.95137 146.397 2.82307 145.189C1.74504 134.97 0.504856 124.769 0.0522604 114.494C-0.159782 109.689 0.294595 104.927 1.03229 100.198C2.02836 93.8115 3.15806 87.4442 4.27886 81.077C5.36937 74.8781 8.84402 70.4525 14.4783 67.6126C16.4882 66.601 18.4109 65.4122 20.3353 64.2429C20.8093 63.9559 21.1959 63.4705 21.5203 63.0063C22.0459 62.2569 22.4058 61.3835 22.9885 60.689C23.4358 60.154 24.2412 59.9077 24.6581 59.3603C25.0466 58.8501 24.6296 57.9342 25.4208 57.4859C25.5544 57.4097 25.5936 57.0696 25.5811 56.857C25.5259 55.8259 25.4796 54.7895 25.3406 53.7673C25.2889 53.3935 25.0377 53.0143 24.79 52.7061C23.826 51.5102 22.8335 50.3356 21.8356 49.1681C21.6521 48.952 21.4169 48.7553 21.1657 48.6224C17.7195 46.8012 16.1835 43.8904 16.1711 40.0832C16.1711 39.6279 16.0855 39.1495 15.9287 38.7208C14.6529 35.2342 14.0578 31.7069 15.1875 28.0556C15.2392 27.8908 15.289 27.7083 15.2677 27.5418C14.7402 23.3288 14.2021 19.1177 13.6729 14.9065C13.5767 14.1447 13.5749 13.3669 13.4181 12.6193C12.9744 10.5093 13.7869 8.83334 15.4031 7.64103C17.1564 6.34951 18.9918 5.07925 20.9679 4.19166C28.8455 0.662566 37.1241 -0.641356 45.7252 0.292294C48.0042 0.540323 50.2084 1.15331 52.2771 2.18086C54.3227 3.19777 55.4221 4.73555 55.6235 7.09891C56.0137 11.6538 56.6213 16.1892 57.1577 20.7316C57.1862 20.9708 57.3394 21.2241 57.5016 21.4155C60.2884 24.6948 59.5062 28.5357 57.7225 31.0921C57.4624 31.466 57.3109 31.9992 57.3163 32.4563C57.3733 36.7047 57.7083 40.9637 57.5051 45.1979C57.2468 50.5819 55.08 55.1828 50.6645 58.5631C49.1286 59.7394 47.3823 60.4127 45.351 60.8343C45.6735 61.1709 45.8713 61.4632 46.1421 61.6457C47.8046 62.7636 49.4101 63.9931 51.1742 64.925C53.3962 66.0996 55.7482 67.0333 58.0504 68.059C60.9816 69.3665 63.1376 71.5137 64.7003 74.2491C68.1287 80.255 71.5071 86.2874 74.9123 92.3056C75.6981 93.6946 76.5266 95.0605 77.2964 96.4583C77.5405 96.9012 77.8327 96.988 78.3014 96.9402C86.0703 96.1483 93.8375 95.3546 101.612 94.6194C102.31 94.5538 103.046 94.8975 103.766 95.0499C103.764 95.1367 103.761 95.2253 103.759 95.3121C103.962 95.0694 104.176 94.8355 104.365 94.5822C105.594 92.9221 107.228 91.8025 109.078 90.9025C110.804 90.0627 112.455 89.0671 114.137 88.137C114.552 87.9084 114.94 87.6214 115.377 87.4478C116.968 86.8171 118.294 87.8854 118.019 89.5737C117.807 90.8794 116.931 91.7706 115.99 92.605C115.714 92.8495 115.411 93.0656 115.122 93.2942L115.213 93.6219C117.075 93.4129 118.948 93.2623 120.799 92.9735C122.438 92.7184 124.049 92.2861 125.68 91.9725C126.528 91.8096 127.34 91.8751 127.912 92.683C128.012 92.8229 128.251 92.8849 128.44 92.9399C130.091 93.4217 130.516 95.0587 129.341 96.3166C128.937 96.7506 128.694 97.3388 128.278 97.7605C127.453 98.5967 126.562 99.3691 125.687 100.156C125.514 100.312 125.272 100.395 125.102 100.556C120.462 104.987 114.762 106.604 108.506 106.76C108.476 106.76 108.447 106.76 108.417 106.76C107.765 106.771 106.965 106.558 106.501 106.86C106.066 107.139 105.965 107.956 105.76 108.551C105.436 109.49 104.751 109.972 103.816 110.176C99.2615 111.163 94.7356 112.306 90.1473 113.094C85.7656 113.847 81.327 114.295 76.899 114.74C75.4432 114.887 73.9269 114.715 72.4693 114.494C70.1279 114.137 68.3336 112.745 66.8065 111.041C65.2313 109.283 63.7435 107.448 62.1362 105.552C62.1131 105.889 62.0739 106.185 62.0756 106.482C62.1541 114.749 62.2182 123.013 62.3251 131.28C62.3625 134.143 62.4766 137.006 62.6066 139.867C62.6512 140.841 62.3661 141.507 61.4395 141.924C61.1936 142.034 60.9459 142.434 60.9299 142.712C60.235 155.16 58.6812 167.522 57.2521 179.899C56.3291 187.903 55.5326 195.923 54.8822 203.954C54.1766 212.692 53.7151 221.447 53.1093 230.194C53.0754 230.684 52.6959 231.152 52.4268 231.742C54.8448 234.123 57.6263 236.226 61.1544 237.169C62.5015 237.528 63.8611 237.851 65.1993 238.24C67.0453 238.775 68.3692 239.801 68.5866 241.874C68.665 242.615 68.9359 243.336 69.0303 244.076C69.1657 245.127 68.6151 245.858 67.6796 246.23C66.5838 246.668 65.4683 247.137 64.3172 247.347C58.5012 248.402 52.842 247.984 47.459 245.345C47.2202 245.228 46.9618 245.146 46.7213 245.033C46.0602 244.719 45.4312 244.501 44.7327 245.027C44.4814 245.217 44.052 245.171 43.701 245.235C42.1508 243.947 40.2103 243.121 38.9968 241.307C39.1786 241.293 39.2873 241.265 39.3889 241.28C43.0862 241.821 46.7159 242.54 50.2511 243.872C55.2725 245.763 60.4684 245.807 65.6501 244.402C66.4074 244.197 67.1041 243.771 67.8293 243.449C66.7727 243.589 65.8283 244.007 64.8375 244.225C59.8893 245.314 54.9428 245.231 50.1906 243.458C46.568 242.106 42.8457 241.406 39.0574 240.866C38.7581 240.823 38.3874 240.605 38.2289 240.356C37.4395 239.108 36.7107 237.824 35.9605 236.554C35.8322 236.338 35.6968 236.125 35.565 235.912C35.4812 235.964 35.3957 236.013 35.3119 236.065C36.0799 237.413 36.8141 238.781 37.623 240.106C38.9487 242.278 40.8429 243.864 43.0577 245.088C43.2466 245.192 43.4996 245.18 43.7224 245.222H43.7295ZM17.3186 169.168C17.3186 169.391 17.315 169.565 17.3186 169.74C17.6073 180.749 17.8193 191.762 18.206 202.767C18.5641 212.975 19.1129 223.176 19.5548 233.383C19.5798 233.972 19.7901 234.284 20.305 234.531C22.1546 235.418 24.1182 235.836 26.1478 235.978C29.1413 236.185 32.0832 235.946 34.9021 234.825C35.4937 234.589 35.9285 234.33 35.957 233.517C36.2831 224.547 36.6074 215.578 37.0475 206.615C37.313 201.19 37.7086 195.771 38.1772 190.36C38.726 184.009 39.339 177.661 40.0677 171.328C40.809 164.879 41.7195 158.45 42.5677 152.013C42.6087 151.7 42.6657 151.258 42.876 151.12C43.9932 150.385 45.1639 149.728 46.315 149.042C46.4076 149.138 46.5021 149.232 46.5947 149.327C46.4219 149.572 46.2954 149.873 46.0691 150.05C45.4846 150.504 44.8271 150.865 44.2587 151.336C43.9754 151.572 43.6921 151.944 43.6333 152.291C43.3018 154.238 42.9936 156.192 42.7584 158.154C41.994 164.54 41.1957 170.924 40.5453 177.323C39.8807 183.869 39.3229 190.428 38.8169 196.988C38.4106 202.255 38.1041 207.533 37.8351 212.809C37.5321 218.735 37.3308 224.666 37.0564 230.594C37.0243 231.301 37.2952 231.581 37.9473 231.74C40.6308 232.398 43.3589 232.642 46.0762 232.215C47.8421 231.937 49.5544 231.31 51.2846 230.823C51.8352 230.667 52.017 230.291 52.0508 229.698C52.4215 223.096 52.6656 216.481 53.2589 209.898C54.3566 197.7 55.6645 185.52 56.8833 173.333C57.8009 164.14 58.7257 154.947 59.6184 145.752C59.7164 144.751 59.6309 143.734 59.6309 142.733C58.1377 143.091 56.6784 143.481 55.2012 143.787C51.1296 144.631 46.9957 144.803 42.851 144.959C36.5432 145.196 30.2639 144.974 24.006 144.181C22.2508 143.958 20.501 143.674 18.7156 143.414C18.5107 144.578 19.2519 145.984 17.5823 146.647C20.501 150.596 20.9893 155.133 21.465 159.668C21.563 160.602 21.4775 161.525 20.6044 162.131C19.8132 162.68 19.0345 162.515 18.2755 162.03C18.2576 162.019 18.1953 162.08 18.1133 162.131C18.5623 163.398 19.0773 164.657 19.4515 165.958C19.9486 167.685 19.17 168.838 17.3168 169.166L17.3186 169.168ZM21.5719 64.7514C18.0652 66.8933 14.5959 68.9378 11.2086 71.1116C9.02042 72.5165 7.59314 74.6017 6.72537 77.0253C6.18012 78.5506 5.62595 80.0991 5.33016 81.6847C4.2557 87.4602 3.19548 93.241 2.30989 99.0467C1.58467 103.804 0.900431 108.601 1.21939 113.422C1.75395 121.491 2.50412 129.545 3.14024 137.608C3.18479 138.166 3.42356 138.37 3.92961 138.467C7.99763 139.265 12.014 139.054 16.0054 137.952C16.8892 137.707 17.1083 137.287 17.0602 136.394C16.752 130.646 16.4811 124.895 16.2637 119.142C16.18 116.933 15.9893 114.676 16.3225 112.513C17.4059 105.483 18.7049 98.4886 19.9362 91.4818C19.9896 91.1789 20.207 90.906 20.3478 90.6172C20.4725 90.6385 20.599 90.6615 20.7238 90.6828C20.7238 91.209 20.7968 91.7475 20.7131 92.2595C20.0146 96.4831 19.2591 100.698 18.5766 104.925C17.9904 108.562 17.1529 112.169 17.3275 115.898C17.7249 124.362 18.1044 132.825 18.459 141.289C18.4875 141.988 18.7067 142.241 19.3963 142.363C27.1189 143.75 34.8968 144.204 42.7281 143.811C43.9772 143.749 43.9772 143.734 43.9772 142.459C43.9772 130.086 43.9594 117.713 44.0003 105.34C44.0057 103.85 44.2124 102.337 44.5278 100.879C44.7683 99.7642 44.7826 98.8642 43.9077 98.0103C43.3624 97.4788 42.99 96.779 42.5036 96.1819C37.7941 90.4011 33.081 84.622 28.3609 78.8501C27.5893 77.9058 27.5626 77.7818 28.3038 76.795C28.8295 76.0934 29.364 75.3971 29.961 74.6123C28.7208 74.2597 27.6249 73.9107 26.5077 73.645C25.8253 73.482 25.4671 73.1436 25.2408 72.4686C24.3623 69.8289 23.2558 67.2884 21.5737 64.7514H21.5719ZM52.5444 73.4413C53.4033 74.1924 54.1267 74.8462 54.8733 75.4715C55.3812 75.8967 55.5718 76.3822 55.4025 77.0359C54.8519 79.176 54.4065 81.3481 53.7686 83.4634C51.9012 89.6411 49.6382 95.6646 46.0352 101.086C45.3065 102.184 45.0107 103.307 45.0107 104.572C45.0071 117.298 45.0035 130.024 44.9786 142.748C44.9786 143.555 45.2423 143.888 46.0673 143.802C47.9864 143.601 49.9358 143.575 51.8228 143.215C54.6702 142.671 57.4766 141.911 60.2973 141.224C61.1829 141.008 61.5589 140.51 61.4912 139.5C61.3148 136.85 61.2756 134.191 61.1918 131.535C60.8871 121.945 60.5219 112.357 61.1277 102.76C61.5999 95.2802 62.4267 87.8127 62.2182 80.2992C62.2111 80.0583 62.2984 79.8156 62.3429 79.5746C62.4409 79.5605 62.5371 79.5481 62.6352 79.5339C62.7652 80.0158 62.9951 80.4959 63.0093 80.9796C63.0806 83.6033 63.216 86.2324 63.1056 88.8527C62.9096 93.5422 62.5496 98.2246 62.2841 102.911C62.2645 103.263 62.3429 103.708 62.5514 103.974C64.262 106.162 65.9619 108.364 67.7705 110.472C69.7163 112.741 72.2644 113.751 75.2722 113.705C80.6107 113.622 85.8512 112.743 91.0863 111.831C93.1497 111.471 95.1989 111.026 97.3656 110.599C95.9722 108.383 95.263 106.089 95.0064 103.658C94.7498 101.235 94.9102 98.8429 95.7619 96.4654C95.5481 96.4654 95.4359 96.4565 95.3236 96.4654C89.9441 96.965 84.5664 97.5178 79.1798 97.9305C77.7615 98.0386 76.5747 98.4107 75.5698 99.3656C75.1207 99.7925 74.7287 100.278 74.2993 100.726C74.1193 100.914 73.9055 101.068 73.7077 101.238C73.6275 101.16 73.5456 101.082 73.4654 101.003C73.9732 99.3868 75.2882 98.439 76.6549 97.5284C76.6122 97.4185 76.5926 97.3353 76.5516 97.2626C73.8004 92.4013 71.0723 87.5275 68.2855 82.6874C66.4448 79.4878 64.5311 76.329 62.6209 73.1684C62.3073 72.6493 61.8458 72.2188 61.4538 71.7476C61.8084 73.9993 62.6779 76.0845 62.4712 78.4071C62.2717 78.3398 62.1879 78.3363 62.1719 78.3026C62.1006 78.1432 62.0364 77.9784 61.9919 77.8083C61.4235 75.6115 60.8729 73.4094 60.2795 71.2196C60.1886 70.883 59.9784 70.4578 59.6986 70.3108C56.9385 68.8634 54.1517 67.4673 51.3719 66.0571L51.2597 66.2803C52.0063 67.446 52.801 68.587 53.4906 69.7846C54.8003 72.0576 54.8715 71.5137 52.9596 73.1613C52.8705 73.2375 52.7654 73.2942 52.5498 73.4377L52.5444 73.4413ZM29.667 23.134C29.6812 23.3235 29.6794 23.4369 29.7008 23.5485C30.337 26.9075 29.6313 30.0044 27.7782 32.8425C26.9193 34.1571 26.6449 35.6098 26.5006 37.1175C26.4311 37.8527 26.358 38.5861 26.3135 39.3231C26.2796 39.8688 26.1406 40.3064 25.5277 40.4499C24.9147 40.5934 24.6011 40.2426 24.3089 39.7926C23.826 39.0521 23.3912 38.2584 22.7996 37.61C21.2993 35.9624 19.0755 36.2281 17.9583 38.1503C17.7106 38.5773 17.5253 39.0645 17.4291 39.5464C16.882 42.2517 18.2879 45.6638 20.6792 47.0811C21.5292 47.5843 22.6696 48.0201 23.589 47.8854C24.7739 47.7136 25.0786 47.6853 25.4154 49.0352C26.0355 51.512 26.6556 53.9728 26.6111 56.5186C26.5879 57.8385 27.0084 58.6463 28.2005 59.1123C28.2272 59.1229 28.2522 59.1424 28.2789 59.1548C32.812 61.2081 37.3433 63.265 41.8817 65.3041C42.0421 65.3768 42.3521 65.336 42.484 65.2244C43.7901 64.1136 44.5812 62.7813 44.1839 60.9512C44.0787 60.9388 43.9647 60.9123 43.8507 60.9158C39.608 61.0469 35.7681 59.7607 32.2525 57.509C31.0942 56.7666 30.1071 55.755 29.0683 54.8373C28.9417 54.7257 28.9738 54.4387 28.9328 54.2314C29.1378 54.2669 29.3498 54.2846 29.5476 54.3466C29.6509 54.3803 29.7311 54.4919 29.8202 54.5698C32.5857 56.9633 35.7948 58.5206 39.3372 59.3585C43.145 60.2603 46.8389 60.1381 50.0979 57.6135C54.1802 54.4511 56.1634 50.1567 56.4146 45.1376C56.5875 41.6706 56.3576 38.1804 56.24 34.7027C56.1937 33.3226 55.9211 31.9514 55.832 30.5713C55.7678 29.5668 55.2297 29.0813 54.3477 28.7252C51.6285 27.6251 48.7668 27.1556 45.898 26.6701C41.896 25.9916 37.8939 25.3166 33.9149 24.5247C32.4859 24.2412 31.1228 23.6229 29.667 23.1375V23.134ZM15.6401 22.3438C16.1194 22.0037 16.4455 21.7592 16.784 21.5324C20.6151 18.9653 24.8327 17.2309 29.2518 15.9996C37.9081 13.5902 46.6001 12.2863 55.3633 15.5974C55.3633 15.4787 55.3829 15.2732 55.3598 15.073C55.039 12.3181 54.6239 9.57034 54.4207 6.80836C54.2907 5.03141 53.3516 4.03398 51.8905 3.27218C49.966 2.26767 47.8973 1.7911 45.7733 1.48815C41.7712 0.915909 37.7763 1.0665 33.7956 1.67417C28.4161 2.49621 23.2255 3.92946 18.5321 6.75876C17.3329 7.48158 16.2352 8.43649 15.2694 9.45341C14.8008 9.94592 14.489 10.8441 14.5424 11.5244C14.8258 15.0801 15.2481 18.6252 15.6401 22.3438ZM103.401 106.078C105.204 105.937 106.82 105.804 108.436 105.687C109.324 105.623 110.216 105.609 111.102 105.529C115.329 105.141 119.215 103.809 122.668 101.327C123.263 100.9 123.825 100.386 124.268 99.8102C124.487 99.525 124.582 98.8801 124.406 98.6303C124.227 98.3788 123.613 98.2831 123.237 98.3575C122.7 98.4638 122.214 98.8075 121.692 99.013C120.124 99.626 118.554 100.237 116.972 100.809C116.685 100.914 116.327 100.824 116.002 100.824C115.979 100.751 115.956 100.678 115.933 100.606C116.277 100.338 116.863 100.113 116.92 99.7943C117.123 98.6658 117.932 97.6471 117.57 96.3999C117.524 96.2404 117.827 95.8294 118.032 95.7745C119.828 95.2979 121.651 94.9276 123.438 94.4227C124.582 94.1003 125.674 93.6024 126.791 93.1826C126.779 93.1117 126.767 93.0408 126.754 92.97C126.421 92.97 126.077 92.9186 125.754 92.9806C124.881 93.1454 124.01 93.3332 123.149 93.5546C119.99 94.3696 116.8 94.7806 113.54 94.327C113.224 94.2828 112.923 94.1481 112.376 93.9851C112.93 93.5989 113.285 93.3969 113.584 93.1347C114.603 92.2436 115.658 91.3826 116.587 90.4029C117.039 89.9245 117.353 89.145 116.774 88.5497C116.161 87.9208 115.582 88.5338 115.031 88.8367C113.219 89.8342 111.444 90.9113 109.586 91.8131C107.667 92.7432 106.106 94.017 104.832 95.7107C104.392 96.2953 103.7 96.6869 103.137 97.1847C102.938 97.3619 102.661 97.5691 102.624 97.7959C102.161 100.678 102.519 103.481 103.404 106.08L103.401 106.078ZM6.35296 147.775C6.05895 150.619 5.98055 153.326 6.34405 156.031C6.6737 158.49 7.39892 160.825 8.85471 162.863C9.54073 163.821 10.3996 164.659 11.18 165.55C10.8522 164.445 10.3176 163.504 9.88463 162.519C9.46945 161.573 8.95984 160.623 9.2093 159.507C9.54251 159.807 9.74921 160.145 9.88463 160.51C10.6473 162.574 11.6487 164.512 13.0617 166.211C13.7174 167.001 14.5175 167.634 15.624 167.891C14.8489 166.512 14.0756 165.267 13.4341 163.958C12.7855 162.634 12.3917 161.217 12.3561 159.704C12.6804 159.918 12.88 160.179 12.994 160.473C13.4127 161.545 13.6836 162.693 14.2324 163.69C14.995 165.077 15.9252 166.378 16.8624 167.658C17.0442 167.907 17.691 168.082 17.9405 167.949C18.247 167.788 18.5427 167.258 18.5231 166.904C18.4893 166.277 18.2772 165.635 18.0296 165.045C16.8125 162.149 16.1853 159.139 16.1925 156.001C16.1925 155.7 16.319 155.401 16.3867 155.099C16.4829 155.099 16.5791 155.099 16.6753 155.099C16.8019 155.473 16.9658 155.842 17.0495 156.224C17.242 157.087 17.3275 157.98 17.5859 158.822C17.8068 159.541 18.1258 160.264 18.5641 160.87C18.7869 161.178 19.4408 161.447 19.7669 161.339C20.0805 161.235 20.2444 160.63 20.428 160.226C20.4939 160.083 20.4369 159.877 20.4119 159.702C20.1696 157.92 19.9397 156.134 19.6707 154.355C19.2626 151.648 18.0919 149.253 16.5969 146.968C13.2506 147.981 9.88285 148.291 6.35118 147.772L6.35296 147.775ZM24.1966 60.7882C23.6763 61.6404 23.2112 62.4624 22.6838 63.242C22.3595 63.7221 22.4058 64.0888 22.6571 64.6043C23.8527 67.074 24.9682 69.5791 26.1549 72.0541C26.3064 72.3712 26.6556 72.6972 26.987 72.8088C28.1096 73.1879 29.2625 73.4802 30.4064 73.7938C31.0996 73.9851 31.2902 74.32 30.8127 74.9312C30.3387 75.5371 29.8986 76.1696 29.4335 76.7808C28.6584 77.7977 28.6852 77.7694 29.4816 78.7438C34.0824 84.3829 38.6708 90.0326 43.2573 95.6823C43.8418 96.4016 44.3906 97.151 45.0089 97.9536C45.4543 96.6869 45.5809 95.5902 45.0445 94.4121C43.3589 90.7058 41.8603 86.911 40.0731 83.2561C36.0247 74.9719 30.982 67.3539 24.1966 60.7882ZM45.6985 100.586C46.1101 99.7961 46.4665 99.1246 46.8121 98.4496C50.2707 91.6838 52.915 84.6291 54.4314 77.1741C54.5383 76.6461 54.451 76.283 54.0358 75.9339C53.2875 75.3068 52.5836 74.6265 51.8406 73.9922C51.3898 73.6078 51.4005 73.2854 51.8531 72.9186C52.3983 72.4793 52.9222 72.0151 53.5405 71.4871C52.2379 69.5348 50.9799 67.648 49.7219 65.7595C49.6507 65.8002 49.5776 65.8392 49.5063 65.8799C49.5313 66.0217 49.5812 66.1616 49.5776 66.3033C49.5366 68.1529 49.7273 70.0521 49.3531 71.8344C49.109 72.9983 49.0377 74.1216 48.9557 75.2802C48.6617 79.4861 48.4889 83.7096 47.9507 87.8871C47.4091 92.0895 46.4843 96.244 45.6985 100.586ZM17.1547 138.411C12.561 139.957 8.0101 140.156 3.30239 139.187C3.53582 141.21 3.81023 143.132 3.95456 145.063C4.02049 145.951 4.43745 146.367 5.22147 146.452C7.01225 146.645 8.81194 146.922 10.6045 146.904C12.7356 146.883 14.8721 146.596 16.8482 145.697C17.1511 145.559 17.5413 145.139 17.5306 144.861C17.4576 142.748 17.2954 140.638 17.1547 138.409V138.411ZM102.013 95.5991C100.48 95.7975 98.9907 96.026 97.4921 96.166C96.84 96.2262 96.4907 96.5168 96.4123 97.1067C96.1825 98.8234 95.8136 100.545 95.8154 102.266C95.8154 104.858 96.4123 107.366 97.8004 109.614C97.9822 109.909 98.4437 110.286 98.702 110.238C100.384 109.923 102.048 109.501 103.761 109.104C101.774 106.101 100.584 100.522 102.013 95.5991ZM42.5642 72.1232C42.7726 73.4359 43.015 74.7611 43.1896 76.0934C43.8222 80.8839 44.4191 85.6779 45.0606 90.4667C45.2049 91.5491 45.4739 92.6157 45.6842 93.691C45.7822 93.6804 45.882 93.668 45.98 93.6574C47.2469 86.9482 48.1877 80.2071 47.8884 73.6326C46.7409 72.9983 45.8018 72.4669 44.8485 71.9602C44.6133 71.8344 44.3211 71.6944 44.0787 71.7263C43.5923 71.7901 43.1201 71.9708 42.5642 72.1232ZM55.7696 19.8919C55.9674 18.8555 55.5415 18.2779 54.6114 17.998C53.5619 17.6826 52.5408 17.2575 51.4753 17.0147C46.7391 15.9358 41.9744 16.1272 37.2239 16.8978C30.0055 18.0706 23.1631 20.2763 17.0192 24.3582C16.2459 24.8719 15.8842 25.4158 16.2619 26.3087C17.7605 25.4265 19.2127 24.4521 20.7647 23.6761C27.1706 20.4783 33.9559 18.5366 41.0941 17.8882C46.1136 17.4311 51.0548 17.711 55.7678 19.8919H55.7696ZM34.838 71.2834C34.7275 71.3578 34.6188 71.434 34.5083 71.5084C38.2592 77.2432 41.454 83.272 44.3371 89.5047C43.6547 83.7752 42.8118 78.0971 41.953 72.419C41.9138 72.1621 41.7178 71.9283 41.6483 71.7883C40.531 72.4615 39.5385 73.1613 38.4587 73.6804C37.4431 74.1676 36.586 73.7672 36.1084 72.9346C35.7663 72.3393 35.2674 71.8308 34.8397 71.2834H34.838ZM35.4099 70.9929L35.6113 70.8246C35.5757 70.4242 35.5347 70.0255 35.5062 69.6234C35.442 68.7128 35.3262 67.8004 35.3333 66.888C35.3476 65.2953 36.2243 64.5955 37.7674 65.0437C38.7795 65.336 39.7149 65.8835 40.6932 66.2963C40.8678 66.3707 41.087 66.3459 41.2848 66.3654C41.1654 66.2024 41.0692 66.0128 40.9195 65.8852C40.7894 65.7754 40.5987 65.7382 40.4348 65.6673C36.8996 64.1402 33.3465 62.6502 29.838 61.0664C28.4838 60.4552 27.224 59.6349 25.6488 58.758C25.7593 59.681 25.5883 60.5987 25.9714 61.0717C28.1613 63.7841 30.4403 66.4274 32.7835 69.0104C33.5069 69.8076 34.5243 70.3374 35.4082 70.9893L35.4099 70.9929ZM125.578 99.0254C126.159 98.4798 126.763 97.9996 127.24 97.4185C127.431 97.1865 127.49 96.6426 127.344 96.3963C127.192 96.1412 126.706 95.9286 126.391 95.9569C125.813 96.0083 125.247 96.2316 124.687 96.414C122.718 97.0554 120.772 97.7693 118.782 98.3292C117.932 98.5683 117.663 99.0077 117.618 99.8439C118.005 99.7323 118.329 99.6791 118.62 99.5498C119.915 98.9705 121.189 98.3416 122.494 97.7835C124.079 97.1067 124.847 97.4132 125.578 99.0254ZM128.151 96.0154C128.703 95.5034 129.236 95.0676 128.857 94.3625C128.493 93.6875 127.812 93.7902 127.194 93.9196C126.82 93.9975 126.465 94.1605 126.098 94.2739C123.782 94.9879 121.481 95.7691 119.135 96.3715C118.272 96.593 118.123 96.9579 118.214 97.7693C118.641 97.6577 119.017 97.5851 119.374 97.4593C121.271 96.7878 123.169 96.1182 125.056 95.4201C126.195 94.9985 127.255 94.8816 128.151 96.0154ZM45.0107 250.659C44.9822 250.597 44.9519 250.537 44.9234 250.475C44.4975 250.644 44.077 250.835 43.6422 250.975C40.2887 252.05 36.8622 252.034 33.4249 251.549C31.2368 251.241 29.1057 250.667 27.2721 249.382C26.2119 248.64 25.3121 247.671 24.2679 246.902C22.9921 245.965 21.6396 245.134 20.3193 244.255C20.2694 244.326 20.2195 244.397 20.1678 244.468C20.4404 244.682 20.7077 244.902 20.9839 245.111C22.5805 246.324 24.1645 247.554 25.7789 248.739C26.6342 249.368 27.4877 250.052 28.4446 250.484C33.3537 252.706 38.4231 252.789 43.5602 251.379C44.0716 251.239 44.5296 250.9 45.0107 250.656V250.659ZM44.3745 66.3246C46.1618 64.8754 46.1849 64.7868 45.4098 62.9036C44.7933 63.8177 44.1251 64.8099 43.4551 65.8055C43.7331 65.9632 44.0378 66.135 44.3745 66.3246ZM103.78 107.209C104.114 107.708 104.345 108.055 104.7 108.583C104.908 107.921 105.047 107.476 105.234 106.876C104.684 107.001 104.306 107.088 103.78 107.209Z" fill="black"/>
<path d="M17.3126 169.168C19.164 168.842 19.9426 167.689 19.4473 165.959C19.0731 164.659 18.5581 163.399 18.1091 162.133C18.1911 162.08 18.2534 162.019 18.2713 162.032C19.0285 162.517 19.809 162.684 20.6002 162.133C21.4733 161.525 21.5588 160.602 21.4608 159.67C20.985 155.135 20.4968 150.596 17.5781 146.649C19.2477 145.986 18.5047 144.579 18.7114 143.415C20.4986 143.676 22.2466 143.959 24.0018 144.183C30.2597 144.976 36.539 145.199 42.8468 144.96C46.9915 144.804 51.1254 144.633 55.197 143.789C56.6741 143.483 58.1335 143.093 59.6267 142.735C59.6267 143.734 59.7105 144.753 59.6142 145.754C58.7197 154.949 57.7967 164.142 56.8791 173.335C55.662 185.522 54.3524 197.702 53.2547 209.9C52.6614 216.483 52.4173 223.096 52.0466 229.699C52.0128 230.293 51.8328 230.668 51.2804 230.824C49.5484 231.311 47.8378 231.939 46.072 232.217C43.3529 232.644 40.6266 232.399 37.9431 231.742C37.2909 231.583 37.0183 231.303 37.0522 230.596C37.3266 224.668 37.5279 218.736 37.8309 212.81C38.0999 207.534 38.4046 202.257 38.8127 196.99C39.3187 190.429 39.8764 183.871 40.5411 177.324C41.1915 170.925 41.9915 164.542 42.7542 158.155C42.9894 156.194 43.2976 154.24 43.6291 152.293C43.6879 151.946 43.9694 151.574 44.2545 151.338C44.8229 150.867 45.4804 150.505 46.0649 150.052C46.2912 149.877 46.4195 149.574 46.5905 149.329C46.4979 149.233 46.4034 149.14 46.3108 149.044C45.1597 149.728 43.989 150.387 42.8718 151.122C42.6615 151.26 42.6045 151.703 42.5635 152.015C41.7153 158.451 40.8048 164.881 40.0635 171.329C39.3365 177.663 38.7218 184.011 38.173 190.362C37.7061 195.772 37.3105 201.194 37.0433 206.617C36.6031 215.581 36.2788 224.551 35.9528 233.519C35.9225 234.334 35.4877 234.593 34.8979 234.826C32.079 235.948 29.1371 236.187 26.1436 235.98C24.114 235.84 22.1504 235.422 20.3008 234.532C19.7858 234.286 19.5756 233.974 19.5506 233.384C19.1087 223.178 18.5599 212.977 18.2018 202.769C17.8151 191.763 17.6031 180.751 17.3144 169.742C17.309 169.568 17.3144 169.393 17.3144 169.17L17.3126 169.168Z" fill="white"/>
<path d="M21.5661 64.7515C23.2482 67.2884 24.3547 69.829 25.2332 72.4687C25.4577 73.1437 25.8177 73.4838 26.5001 73.6451C27.6156 73.9108 28.7114 74.2598 29.9534 74.6124C29.3565 75.399 28.8237 76.0952 28.2962 76.795C27.5568 77.7818 27.5817 77.9076 28.3533 78.8501C33.0734 84.6221 37.7865 90.4012 42.496 96.182C42.9806 96.7773 43.3548 97.4788 43.9001 98.0103C44.775 98.8643 44.7607 99.7625 44.5202 100.879C44.2048 102.337 43.9981 103.85 43.9928 105.34C43.9535 117.713 43.9696 130.086 43.9696 142.459C43.9696 143.734 43.9696 143.749 42.7205 143.811C34.8892 144.204 27.1113 143.75 19.3887 142.363C18.7009 142.239 18.4817 141.988 18.4514 141.29C18.0968 132.825 17.7173 124.362 17.3199 115.899C17.1453 112.169 17.9828 108.562 18.569 104.925C19.2515 100.698 20.007 96.4832 20.7055 92.2596C20.791 91.7476 20.7162 91.209 20.7162 90.6829C20.5914 90.6616 20.4649 90.6386 20.3402 90.6173C20.1994 90.9043 19.982 91.1789 19.9286 91.4819C18.6955 98.4869 17.3965 105.483 16.3149 112.513C15.9817 114.676 16.1724 116.933 16.2561 119.142C16.4753 124.895 16.7462 130.646 17.0526 136.395C17.1007 137.287 16.8816 137.707 15.9978 137.952C12.0064 139.056 7.99182 139.265 3.92202 138.467C3.41775 138.368 3.1772 138.166 3.13265 137.608C2.49474 129.545 1.74457 121.49 1.21179 113.422C0.892839 108.601 1.57708 103.804 2.3023 99.0467C3.18789 93.2411 4.2481 87.4603 5.32257 81.6847C5.61658 80.0991 6.17074 78.5525 6.71778 77.0253C7.58555 74.6017 9.01283 72.5165 11.201 71.1116C14.5883 68.9378 18.0576 66.8934 21.5643 64.7515H21.5661ZM11.9903 72.0878C11.9779 72.1976 11.9672 72.3093 11.9547 72.4191C12.0171 72.4758 12.0705 72.5591 12.1454 72.5874C14.9429 73.6557 16.5395 75.8702 17.8171 78.4072C19.3441 81.442 19.9892 84.6877 20.2404 88.036C20.2636 88.3496 20.3562 88.6561 20.4168 88.9679C20.513 88.9679 20.6075 88.9644 20.7037 88.9626C20.7785 88.6118 20.9282 88.2593 20.9157 87.912C20.7607 83.1782 19.6096 78.735 16.5822 74.9862C15.7038 73.9002 14.3834 73.1526 13.2127 72.3234C12.9062 72.1055 12.4037 72.1604 11.9903 72.0896V72.0878Z" fill="#A40301"/>
<path d="M52.5385 73.4412C52.7541 73.2977 52.8592 73.241 52.9483 73.1648C54.8602 71.5172 54.789 72.0611 53.4793 69.7881C52.7897 68.5904 51.995 67.4495 51.2484 66.2838L51.3606 66.0605C54.1404 67.4708 56.9272 68.8686 59.6873 70.3142C59.9671 70.4613 60.1773 70.8865 60.2682 71.2231C60.8616 73.4128 61.4122 75.615 61.9806 77.8118C62.0251 77.9801 62.0893 78.1449 62.1606 78.3061C62.1766 78.3397 62.2603 78.345 62.4599 78.4106C62.6648 76.0898 61.7971 74.0028 61.4425 71.751C61.8345 72.2223 62.296 72.6546 62.6096 73.1719C64.5198 76.3325 66.4335 79.4913 68.2742 82.6909C71.061 87.5327 73.7891 92.4065 76.5403 97.2661C76.5812 97.3387 76.6026 97.422 76.6436 97.5318C75.2787 98.4407 73.9619 99.3903 73.4541 101.006C73.5343 101.084 73.6162 101.162 73.6964 101.242C73.8942 101.072 74.108 100.917 74.288 100.73C74.7192 100.283 75.1094 99.796 75.5585 99.369C76.5634 98.4141 77.7502 98.0421 79.1685 97.934C84.5551 97.5212 89.931 96.9685 95.3123 96.4689C95.4245 96.4582 95.5386 96.4689 95.7506 96.4689C94.8989 98.8464 94.7403 101.24 94.9951 103.662C95.2517 106.092 95.9609 108.385 97.3543 110.603C95.1876 111.03 93.1384 111.475 91.075 111.834C85.8399 112.747 80.5994 113.625 75.2609 113.709C72.2531 113.755 69.7068 112.745 67.7592 110.475C65.9524 108.367 64.2525 106.165 62.5401 103.977C62.3316 103.711 62.2532 103.267 62.2728 102.914C62.5383 98.2281 62.9 93.5457 63.0943 88.8561C63.203 86.2377 63.0675 83.6068 62.998 80.983C62.9856 80.4976 62.7539 80.0192 62.6239 79.5374C62.5258 79.5515 62.4296 79.5639 62.3316 79.5781C62.2889 79.819 62.2015 80.0635 62.2069 80.3027C62.4154 87.8162 61.5886 95.2836 61.1164 102.763C60.5105 112.359 60.8758 121.947 61.1805 131.538C61.2643 134.194 61.3035 136.853 61.4799 139.504C61.5476 140.513 61.1698 141.011 60.286 141.227C57.4671 141.915 54.6607 142.675 51.8115 143.219C49.9244 143.578 47.9751 143.607 46.056 143.805C45.2328 143.89 44.9673 143.557 44.9673 142.751C44.9922 130.025 44.994 117.3 44.9994 104.576C44.9994 103.311 45.2934 102.188 46.0239 101.089C49.6251 95.6663 51.8899 89.6445 53.7573 83.4668C54.3969 81.3533 54.8406 79.1813 55.3912 77.0394C55.5587 76.3856 55.3681 75.9002 54.862 75.475C54.1154 74.8496 53.392 74.1959 52.5331 73.4447L52.5385 73.4412ZM56.9183 91.891C56.9183 91.852 56.9183 91.813 56.9183 91.7758C57.8663 91.7758 58.8142 91.79 59.7604 91.7705C60.5836 91.7545 61.0077 91.3223 61.0059 90.4896C61.0059 89.664 61.0309 88.8402 61.0184 88.0146C61.0023 86.9587 60.6192 86.5654 59.5555 86.5885C57.8377 86.6239 56.12 86.6948 54.4023 86.7692C53.5042 86.8081 53.13 87.1837 53.1158 88.1103C53.1015 89.0227 53.155 89.9368 53.1781 90.8492C53.1995 91.6589 53.6468 92.0238 54.4308 92.0026C55.2594 91.9795 56.0897 91.9299 56.9183 91.8927V91.891ZM46.1059 106.502C46.1006 107.74 46.8703 108.672 47.9252 108.704C48.964 108.736 49.7605 107.804 49.7748 106.542C49.789 105.293 49.0014 104.333 47.9662 104.338C46.9131 104.342 46.1112 105.276 46.1059 106.503V106.502ZM49.9013 121.374C49.9066 120.168 49.16 119.261 48.1301 119.229C47.0432 119.194 46.1451 120.159 46.1291 121.376C46.1148 122.577 46.938 123.527 48.0036 123.536C49.021 123.545 49.8942 122.551 49.8995 121.376L49.9013 121.374Z" fill="#A40301"/>
<path d="M56.2358 34.701C56.1895 33.3209 55.9168 31.9496 55.8278 30.5695C55.7636 29.565 55.2255 29.0796 54.3435 28.7235C51.6243 27.6233 48.7626 27.1538 45.8938 26.6684C41.8917 25.9898 37.8897 25.3149 33.9107 24.5229C32.4817 24.2395 31.1185 23.6212 29.6628 23.1357C29.677 23.3253 29.6752 23.4387 29.6966 23.5503C30.3327 26.9093 29.6271 30.0061 27.774 32.8443C26.9151 34.1588 26.6407 35.6116 26.4964 37.1192C26.4269 37.8545 26.3538 38.5879 26.3093 39.3249C26.2754 39.8706 26.1364 40.3082 25.5235 40.4517C24.9105 40.5952 24.5969 40.2444 24.3047 39.7944C23.8218 39.0539 23.387 38.2602 22.7954 37.6118C21.2951 35.9641 19.0713 36.2299 17.9541 38.1521C17.7064 38.5791 17.5211 39.0663 17.4249 39.5482C16.8778 42.2534 18.2837 45.6656 20.675 47.0829C21.5249 47.5861 22.6653 48.0219 23.5848 47.8872C24.7697 47.7154 25.0744 47.687 25.4112 49.037C26.0313 51.5138 26.6514 53.9746 26.6068 56.5204C26.5837 57.8403 27.0042 58.6481 28.1963 59.1141C28.223 59.1247 28.2479 59.1442 28.2747 59.1566C32.8078 61.2099 37.3391 63.2668 41.8775 65.3059C42.0378 65.3786 42.3479 65.3378 42.4798 65.2262C43.7859 64.1154 44.577 62.7831 44.1797 60.953C44.0745 60.9406 43.9605 60.914 43.8464 60.9176C39.6038 61.0487 35.7639 59.7625 32.2482 57.5107C31.09 56.7684 30.1029 55.7568 29.064 54.8391C28.9375 54.7275 28.9696 54.4405 28.9286 54.2332C29.1353 54.2687 29.3456 54.2864 29.5434 54.3484C29.6467 54.382 29.7269 54.4936 29.816 54.5716C32.5815 56.9651 35.7906 58.5223 39.333 59.3603C43.1408 60.2621 46.8346 60.1398 50.0937 57.6153C54.176 54.4529 56.1592 50.1585 56.4104 45.1394C56.5833 41.6723 56.3534 38.1822 56.2358 34.7045V34.701Z" fill="white"/>
<path d="M15.6358 22.3439C15.2438 18.6253 14.8215 15.0802 14.5382 11.5245C14.4847 10.8442 14.7965 9.94602 15.2652 9.45351C16.231 8.43836 17.3286 7.48168 18.5278 6.75886C23.2212 3.93133 28.4118 2.49631 33.7913 1.67427C37.772 1.0666 41.767 0.916009 45.769 1.48825C47.893 1.7912 49.9618 2.26776 51.8862 3.27228C53.3473 4.03408 54.2864 5.03151 54.4165 6.80846C54.6196 9.57221 55.0366 12.3182 55.3555 15.0731C55.3787 15.2733 55.3591 15.4788 55.3591 15.5975C46.5958 12.2864 37.9039 13.5903 29.2475 15.9997C24.8285 17.2292 20.6108 18.9654 16.7798 21.5325C16.4412 21.7593 16.1151 22.0038 15.6358 22.3439Z" fill="#A40301"/>
<path d="M103.397 106.078C102.511 103.479 102.153 100.677 102.616 97.7942C102.652 97.5674 102.93 97.3602 103.129 97.183C103.691 96.6852 104.384 96.2936 104.824 95.709C106.1 94.0153 107.661 92.7433 109.578 91.8114C111.438 90.9096 113.211 89.8325 115.023 88.8351C115.574 88.5321 116.153 87.9191 116.766 88.5481C117.347 89.1433 117.033 89.9228 116.579 90.4012C115.651 91.3809 114.596 92.2401 113.576 93.133C113.277 93.3953 112.923 93.5972 112.368 93.9834C112.914 94.1464 113.217 94.2811 113.532 94.3254C116.791 94.7789 119.982 94.3679 123.142 93.5529C124.002 93.3315 124.874 93.1437 125.747 92.9789C126.069 92.9187 126.413 92.9683 126.746 92.9683C126.759 93.0392 126.771 93.11 126.784 93.1809C125.668 93.6008 124.574 94.0968 123.43 94.421C121.643 94.9259 119.82 95.298 118.024 95.7728C117.819 95.8277 117.516 96.2387 117.563 96.3982C117.924 97.6472 117.115 98.6641 116.912 99.7926C116.855 100.112 116.269 100.337 115.925 100.604C115.948 100.677 115.971 100.749 115.994 100.822C116.319 100.822 116.677 100.911 116.964 100.808C118.548 100.236 120.116 99.6243 121.684 99.0113C122.206 98.8076 122.693 98.4621 123.229 98.3558C123.605 98.2814 124.22 98.3771 124.398 98.6287C124.576 98.8785 124.482 99.5233 124.261 99.8086C123.817 100.384 123.256 100.898 122.66 101.325C119.207 103.807 115.321 105.141 111.094 105.527C110.209 105.609 109.316 105.621 108.429 105.685C106.813 105.802 105.196 105.935 103.393 106.077L103.397 106.078ZM113.493 100.046C111.991 98.4515 107.431 98.4355 107.139 100.115C109.293 99.1141 111.387 99.5322 113.493 100.046Z" fill="white"/>
<path d="M6.34871 147.776C9.87859 148.295 13.2463 147.985 16.5945 146.971C18.0895 149.258 19.2584 151.654 19.6682 154.359C19.9373 156.138 20.1671 157.923 20.4095 159.706C20.4326 159.881 20.4896 160.087 20.4255 160.23C20.242 160.634 20.078 161.238 19.7644 161.343C19.4383 161.451 18.7862 161.183 18.5617 160.873C18.1233 160.267 17.8044 159.544 17.5834 158.825C17.325 157.984 17.2395 157.091 17.0471 156.228C16.9615 155.844 16.7994 155.477 16.6729 155.103C16.5766 155.103 16.4804 155.103 16.3842 155.103C16.3165 155.404 16.1918 155.704 16.19 156.005C16.1829 159.142 16.8101 162.151 18.0271 165.049C18.2748 165.639 18.4868 166.28 18.5207 166.907C18.5403 167.262 18.2445 167.79 17.938 167.953C17.6885 168.086 17.0417 167.91 16.86 167.662C15.9227 166.381 14.9926 165.081 14.2299 163.694C13.6811 162.694 13.4103 161.548 12.9915 160.476C12.8775 160.182 12.6779 159.92 12.3536 159.707C12.3893 161.22 12.7848 162.636 13.4316 163.961C14.0731 165.27 14.8465 166.516 15.6216 167.894C14.515 167.637 13.7167 167.005 13.0592 166.215C11.6462 164.516 10.6466 162.578 9.88216 160.514C9.74674 160.149 9.54004 159.81 9.20683 159.511C8.95737 160.625 9.46698 161.577 9.88216 162.523C10.3134 163.508 10.8497 164.448 11.1776 165.554C10.3971 164.661 9.53826 163.825 8.85224 162.866C7.39645 160.829 6.67123 158.492 6.34158 156.035C5.97808 153.33 6.05648 150.623 6.35049 147.779L6.34871 147.776Z" fill="white"/>
<path d="M24.1926 60.7883C30.9762 67.354 36.0206 74.972 40.0691 83.2562C41.8563 86.9128 43.3548 90.7059 45.0405 94.4122C45.5768 95.5903 45.4503 96.6869 45.0048 97.9537C44.3865 97.1511 43.8377 96.4035 43.2533 95.6824C38.6667 90.0309 34.0784 84.3812 29.4776 78.7438C28.6811 77.7694 28.6544 77.796 29.4295 76.7809C29.8964 76.1697 30.3347 75.5372 30.8087 74.9313C31.2862 74.3201 31.0956 73.9852 30.4024 73.7939C29.2584 73.4785 28.1056 73.188 26.983 72.8089C26.6533 72.6972 26.3041 72.3713 26.1509 72.0541C24.9659 69.5809 23.8487 67.0741 22.653 64.6044C22.4036 64.0871 22.3555 63.7222 22.6798 63.242C23.2072 62.4625 23.6723 61.6423 24.1926 60.7883Z" fill="white"/>
<path d="M45.6926 100.586C46.4802 96.2422 47.4032 92.0895 47.9449 87.8872C48.483 83.7115 48.6577 79.4861 48.9499 75.2803C49.0301 74.1216 49.1031 72.9984 49.3472 71.8345C49.7214 70.0522 49.529 68.153 49.5718 66.3034C49.5753 66.1635 49.5254 66.0217 49.5005 65.88C49.5718 65.8392 49.6448 65.8003 49.7161 65.7595C50.9741 67.6463 52.2339 69.5331 53.5346 71.4872C52.9163 72.0134 52.3907 72.4776 51.8472 72.9187C51.3928 73.2854 51.3839 73.6061 51.8347 73.9923C52.5778 74.6265 53.2816 75.3069 54.03 75.934C54.4452 76.283 54.5325 76.6462 54.4256 77.1742C52.9092 84.6292 50.2649 91.6838 46.8063 98.4497C46.4606 99.1247 46.106 99.7961 45.6926 100.586Z" fill="white"/>
<path d="M17.1506 138.411C17.2914 140.639 17.4535 142.749 17.5266 144.863C17.5355 145.141 17.147 145.561 16.8441 145.699C14.868 146.596 12.7316 146.884 10.6004 146.906C8.80789 146.923 7.0082 146.647 5.21742 146.454C4.43339 146.369 4.01643 145.951 3.9505 145.065C3.80796 143.132 3.53176 141.21 3.29834 139.188C8.00604 140.157 12.5569 139.959 17.1506 138.412V138.411Z" fill="white"/>
<path d="M102.007 95.5991C100.578 100.522 101.768 106.101 103.755 109.104C102.043 109.501 100.38 109.923 98.6962 110.238C98.4378 110.286 97.9763 109.909 97.7946 109.615C96.4065 107.366 95.8114 104.858 95.8096 102.266C95.8096 100.546 96.1748 98.8235 96.4065 97.1068C96.4849 96.5168 96.8341 96.2263 97.4863 96.166C98.9849 96.0261 100.475 95.7975 102.007 95.5991Z" fill="white"/>
<path d="M42.5581 72.1231C43.114 71.969 43.5862 71.7901 44.0727 71.7263C44.3168 71.6944 44.6073 71.8343 44.8425 71.9601C45.7958 72.4668 46.7348 72.9983 47.8823 73.6326C48.1799 80.2071 47.2409 86.9482 45.974 93.6573C45.876 93.668 45.7762 93.6804 45.6782 93.691C45.4661 92.6174 45.1988 91.5509 45.0545 90.4666C44.413 85.6779 43.8161 80.8839 43.1835 76.0934C43.0071 74.7593 42.7666 73.4359 42.5581 72.1231ZM44.6233 76.205C44.3328 76.6408 44.0299 76.8959 44.0513 77.1209C44.0745 77.3618 44.4023 77.5744 44.5966 77.7977C44.8015 77.5833 45.1418 77.3849 45.1703 77.1493C45.1988 76.9225 44.903 76.6585 44.6233 76.205ZM45.6443 84.0037C45.377 84.4555 45.0901 84.723 45.1187 84.9533C45.1489 85.1925 45.4822 85.3944 45.6835 85.6141C45.8724 85.3891 46.1949 85.173 46.2092 84.9391C46.2234 84.7035 45.9294 84.4502 45.6425 84.0037H45.6443Z" fill="white"/>
<path d="M55.7655 19.8936C51.0524 17.7127 46.1095 17.4346 41.0918 17.8899C33.9536 18.5383 27.1664 20.48 20.7624 23.6778C19.2104 24.4538 17.7582 25.4282 16.2596 26.3105C15.8818 25.4176 16.2436 24.8737 17.0169 24.3599C23.1608 20.2781 30.0014 18.0724 37.2215 16.8996C41.972 16.1289 46.7367 15.9376 51.473 17.0165C52.5385 17.2592 53.5595 17.6844 54.609 17.9998C55.5392 18.2797 55.9651 18.8555 55.7673 19.8936H55.7655Z" fill="white"/>
<path d="M34.8339 71.2852C35.2615 71.8326 35.7604 72.3411 36.1026 72.9363C36.5801 73.769 37.439 74.1676 38.4529 73.6822C39.5327 73.1631 40.5252 72.4633 41.6424 71.7901C41.7119 71.93 41.9079 72.1639 41.9471 72.4208C42.806 78.0989 43.6488 83.7769 44.3312 89.5064C41.45 83.2756 38.2533 77.2467 34.5024 71.5102C34.6129 71.4357 34.7216 71.3596 34.8321 71.2852H34.8339Z" fill="white"/>
<path d="M35.4058 70.9928C34.522 70.3409 33.5028 69.8094 32.7811 69.0139C30.4379 66.4309 28.1589 63.7876 25.969 61.0752C25.5859 60.6004 25.757 59.6845 25.6465 58.7615C27.2217 59.6384 28.4814 60.4587 29.8357 61.0699C33.346 62.652 36.8972 64.1437 40.4325 65.6708C40.5964 65.7417 40.787 65.7789 40.9171 65.8888C41.0668 66.0163 41.163 66.2059 41.2824 66.3689C41.0846 66.3476 40.8672 66.3742 40.6908 66.2998C39.7126 65.887 38.7771 65.3395 37.765 65.0472C36.2219 64.6008 35.3452 65.2988 35.331 66.8915C35.322 67.8021 35.4379 68.7145 35.5038 69.6269C35.5323 70.0273 35.5733 70.4277 35.6089 70.8281L35.4076 70.9964L35.4058 70.9928Z" fill="white"/>
<path d="M43.7254 245.222C43.5026 245.18 43.2478 245.192 43.0607 245.088C40.8459 243.863 38.9517 242.28 37.626 240.106C36.8171 238.782 36.0829 237.413 35.3149 236.065C35.3987 236.013 35.4842 235.964 35.568 235.912C35.6998 236.127 35.8352 236.338 35.9635 236.554C36.7155 237.824 37.4425 239.108 38.2319 240.356C38.3887 240.605 38.7593 240.823 39.0604 240.866C42.8487 241.406 46.571 242.106 50.1936 243.458C54.9458 245.229 59.8923 245.314 64.8406 244.225C65.8295 244.007 66.7757 243.589 67.8323 243.449C67.1071 243.773 66.4104 244.197 65.6531 244.402C60.4714 245.807 55.2737 245.764 50.2542 243.872C46.7189 242.54 43.0892 241.823 39.3919 241.28C39.2903 241.266 39.1816 241.293 38.9999 241.307C40.2133 243.121 42.1538 243.948 43.704 245.235C43.7076 245.231 43.7272 245.219 43.7272 245.219L43.7254 245.222Z" fill="white"/>
<path d="M125.574 99.0254C124.843 97.4132 124.075 97.1049 122.489 97.7834C121.185 98.3415 119.911 98.9704 118.616 99.5498C118.325 99.6791 118.001 99.7322 117.614 99.8439C117.657 99.0076 117.928 98.5683 118.778 98.3291C120.768 97.7693 122.716 97.0553 124.683 96.414C125.244 96.2315 125.809 96.0083 126.386 95.9569C126.704 95.9285 127.188 96.1411 127.34 96.3963C127.486 96.6425 127.427 97.1864 127.236 97.4185C126.759 97.9996 126.155 98.4797 125.574 99.0254Z" fill="white"/>
<path d="M128.147 96.0155C127.25 94.8817 126.19 94.9986 125.052 95.4203C123.165 96.1201 121.267 96.7897 119.369 97.4594C119.013 97.5852 118.637 97.6561 118.209 97.7694C118.118 96.958 118.268 96.5931 119.13 96.3716C121.477 95.7693 123.776 94.988 126.094 94.274C126.461 94.1606 126.816 93.9976 127.19 93.9197C127.81 93.7886 128.489 93.6858 128.852 94.3626C129.232 95.0677 128.699 95.5018 128.147 96.0155Z" fill="white"/>
<path d="M45.0047 250.659C44.5218 250.906 44.0657 251.242 43.5543 251.382C38.4171 252.791 33.3495 252.709 28.4387 250.488C27.4818 250.054 26.6301 249.37 25.773 248.743C24.1568 247.556 22.5727 246.328 20.978 245.114C20.7018 244.905 20.4327 244.686 20.1619 244.471C20.2118 244.4 20.2616 244.329 20.3133 244.259C21.6337 245.136 22.9861 245.968 24.262 246.905C25.3079 247.672 26.206 248.642 27.2662 249.386C29.0997 250.668 31.2309 251.244 33.419 251.552C36.8562 252.038 40.2828 252.054 43.6362 250.978C44.0728 250.838 44.4915 250.647 44.9174 250.479C44.9459 250.541 44.9762 250.601 45.0047 250.663V250.659Z" fill="white"/>
<path d="M44.3687 66.3246C44.0301 66.1333 43.7272 65.9614 43.4492 65.8055C44.1192 64.8116 44.7892 63.8177 45.4039 62.9036C46.179 64.7886 46.1559 64.8754 44.3687 66.3246Z" fill="white"/>
<path d="M103.774 107.209C104.3 107.088 104.678 107.001 105.228 106.875C105.04 107.476 104.901 107.921 104.694 108.583C104.341 108.055 104.108 107.708 103.774 107.209Z" fill="white"/>
<path d="M11.9902 72.0877C12.4036 72.1586 12.9061 72.1037 13.2126 72.3216C14.3833 73.1507 15.7036 73.8983 16.5821 74.9843C19.6095 78.7331 20.7606 83.1764 20.9156 87.9102C20.9263 88.2574 20.7784 88.61 20.7036 88.9607C20.6074 88.9607 20.5129 88.9643 20.4167 88.9661C20.3561 88.656 20.2635 88.3478 20.2403 88.0342C19.9908 84.6858 19.344 81.4402 17.8169 78.4053C16.5393 75.8684 14.9428 73.6521 12.1453 72.5855C12.0704 72.5572 12.017 72.4739 11.9546 72.4172C11.9671 72.3074 11.9778 72.1958 11.9902 72.0859V72.0877Z" fill="black"/>
<path d="M56.9184 91.8893C56.0899 91.9265 55.2613 91.9761 54.4309 91.9992C53.6469 92.0204 53.1997 91.6555 53.1783 90.8458C53.1551 89.9334 53.0999 89.0193 53.1159 88.1069C53.1302 87.1821 53.5044 86.8065 54.4024 86.7658C56.1201 86.6913 57.8379 86.6205 59.5556 86.585C60.6212 86.5638 61.0043 86.9553 61.0185 88.0112C61.031 88.8368 61.0043 89.6606 61.006 90.4862C61.006 91.3206 60.5837 91.7511 59.7605 91.7671C58.8126 91.7866 57.8646 91.7724 56.9184 91.7724C56.9184 91.8114 56.9184 91.8503 56.9184 91.8875V91.8893ZM57.0307 91.1505C57.0307 91.0868 57.0307 91.0248 57.0307 90.961C57.8307 90.961 58.6308 90.9433 59.4309 90.9681C59.9476 90.984 60.2024 90.821 60.1846 90.2665C60.1597 89.5313 60.1686 88.7925 60.1882 88.0555C60.2006 87.6055 60.0385 87.4195 59.5645 87.4407C57.9056 87.5116 56.2449 87.5293 54.5877 87.6321C54.3704 87.6463 54.0247 88.0147 53.9997 88.2468C53.9249 88.9767 53.9926 89.7191 53.9694 90.4543C53.9516 91.0017 54.1975 91.1771 54.7232 91.1576C55.4929 91.1275 56.2627 91.1505 57.0342 91.1505H57.0307Z" fill="black"/>
<path d="M46.106 106.502C46.1113 105.274 46.9132 104.342 47.9663 104.337C49.0015 104.333 49.7891 105.292 49.7749 106.541C49.7606 107.802 48.9641 108.734 47.9253 108.702C46.8704 108.67 46.1006 107.738 46.106 106.5V106.502ZM48.973 106.417C48.9303 105.88 48.7325 105.3 47.9769 105.185C47.4228 105.1 46.8526 105.807 46.8775 106.537C46.8989 107.198 47.1199 107.783 47.8754 107.894C48.4456 107.979 48.9659 107.297 48.973 106.417Z" fill="black"/>
<path d="M49.903 121.375C49.8976 122.549 49.0245 123.543 48.0071 123.534C46.9415 123.525 46.1165 122.576 46.1326 121.375C46.1486 120.158 47.0467 119.194 48.1336 119.227C49.1635 119.261 49.9119 120.166 49.9048 121.373L49.903 121.375ZM49.1172 121.298C49.1118 120.597 48.6254 120.014 48.0463 120.012C47.4511 120.012 46.9237 120.634 46.9451 121.376C46.9629 122.039 47.1625 122.624 47.9536 122.695C48.5791 122.751 49.1243 122.069 49.119 121.298H49.1172Z" fill="black"/>
<path d="M23.5403 44.0729C22.6101 43.9488 22.3143 43.3731 22.3197 42.7565C22.3357 41.1071 21.402 40.3843 19.9391 40.0796C19.8946 40.0707 19.8643 39.9981 19.6611 39.7572C20.1191 39.6703 20.4826 39.5038 20.8087 39.5587C22.1041 39.782 23.0627 41.093 23.0788 42.3933C23.0859 42.9071 23.3514 43.4191 23.5403 44.0729Z" fill="black"/>
<path d="M113.493 100.046C111.385 99.5322 109.293 99.1141 107.139 100.115C107.431 98.4338 111.991 98.4515 113.493 100.046Z" fill="black"/>
<path d="M44.6253 76.2051C44.9051 76.6568 45.2008 76.9226 45.1723 77.1494C45.1438 77.385 44.8017 77.5834 44.5986 77.7978C44.4043 77.5728 44.0765 77.362 44.0533 77.121C44.0319 76.8978 44.3349 76.6427 44.6253 76.2051Z" fill="black"/>
<path d="M45.6462 84.0056C45.9331 84.4503 46.2271 84.7054 46.2128 84.941C46.1986 85.1767 45.8743 85.3928 45.6872 85.616C45.4858 85.3981 45.1508 85.1962 45.1223 84.9552C45.0938 84.7249 45.3807 84.4574 45.648 84.0056H45.6462Z" fill="black"/>
<path d="M57.0306 91.1523C56.2608 91.1523 55.4893 91.1311 54.7195 91.1594C54.1957 91.1789 53.9498 91.0035 53.9658 90.4561C53.989 89.7191 53.9213 88.9768 53.9961 88.2486C54.0193 88.0165 54.3667 87.6463 54.5841 87.6339C56.2412 87.5311 57.902 87.5134 59.5609 87.4425C60.0366 87.4231 60.197 87.6091 60.1845 88.0573C60.1649 88.7943 60.156 89.5313 60.181 90.2683C60.2006 90.821 59.944 90.9858 59.4272 90.9699C58.6272 90.9451 57.8271 90.9628 57.0271 90.9628C57.0271 91.0266 57.0271 91.0886 57.0271 91.1523H57.0306Z" fill="white"/>
<path d="M48.9729 106.417C48.9657 107.297 48.4454 107.979 47.8752 107.894C47.1197 107.783 46.8988 107.198 46.8774 106.537C46.8542 105.806 47.4244 105.099 47.9768 105.185C48.7305 105.301 48.9283 105.88 48.9729 106.417Z" fill="white"/>
<path d="M49.1174 121.297C49.1245 122.067 48.5793 122.749 47.952 122.693C47.1609 122.622 46.9613 122.035 46.9435 121.375C46.9221 120.632 47.4495 120.01 48.0447 120.01C48.6256 120.01 49.1103 120.595 49.1156 121.297H49.1174Z" fill="white"/>
</g>
<defs>
<clipPath id="clip0_169_5">
<rect width="130" height="255" fill="white"/>
</clipPath>
</defs>
</svg>
