<svg xmlns="http://www.w3.org/2000/svg" viewBox="0 0 200 160" fill="none" aria-hidden="true">
  <title>Pl’┐Įnov’┐Įn’┐Į cesty  komunikace</title>
  <path d="M38 108 L100 78 L162 108 L100 138 Z" fill="#f0eeea" stroke="#d8d4d0" stroke-width="1.2"/>
  <path d="M38 108 L38 118 L100 148 L100 138 Z" fill="#e5e2dd"/>
  <path d="M100 138 L100 148 L162 118 L162 108 Z" fill="#ddd9d4"/>
  <!-- Stol -->
  <path d="M54 100 L126 64 L134 68 L62 104 Z" fill="#ffffff" stroke="#202124" stroke-width="1" stroke-opacity="0.15"/>
  <!-- Monitor -->
  <rect x="78" y="68" width="32" height="24" rx="2" fill="#202124"/>
  <rect x="81" y="71" width="26" height="16" rx="1" fill="#f8f6f2"/>
  <rect x="84" y="74" width="16" height="2" rx="0.5" fill="#b50000" opacity="0.65"/>
  <rect x="84" y="78" width="12" height="1.5" rx="0.5" fill="#202124" opacity="0.2"/>
  <rect x="84" y="81" width="14" height="1.5" rx="0.5" fill="#202124" opacity="0.15"/>
  <!-- Telefon -->
  <rect x="114" y="78" width="12" height="22" rx="2.5" fill="#202124"/>
  <rect x="116" y="82" width="8" height="14" rx="1" fill="#f8f6f2"/>
  <!-- E-mail bublina -->
  <rect x="128" y="58" width="28" height="16" rx="4" fill="#ffffff" stroke="#202124" stroke-width="0.8" stroke-opacity="0.18"/>
  <path d="M132 64 L142 70 L152 64" stroke="#b50000" stroke-width="1" opacity="0.5"/>
  <rect x="134" y="62" width="16" height="2" rx="0.5" fill="#202124" opacity="0.15"/>
  <!-- SMS bublina -->
  <rect x="120" y="96" width="32" height="14" rx="4" fill="#ffffff" stroke="#b50000" stroke-width="0.9" stroke-opacity="0.45"/>
  <rect x="124" y="100" width="20" height="2" rx="0.5" fill="#b50000" opacity="0.35"/>
  <rect x="124" y="104" width="14" height="2" rx="0.5" fill="#202124" opacity="0.12"/>
  <!-- Postava -->
  <circle cx="66" cy="92" r="4.5" fill="#202124" opacity="0.55"/>
  <path d="M61 97 Q66 102 71 97 L69 108 Q66 111 63 108 Z" fill="#202124" opacity="0.35"/>
</svg>
